<?xml version="1.0" encoding="UTF-8" standalone="no"?>
<!DOCTYPE svg PUBLIC "-//W3C//DTD SVG 1.1//EN" "http://www.w3.org/Graphics/SVG/1.1/DTD/svg11.dtd">
<svg width="100%" height="100%" viewBox="0 0 230 230" version="1.1" xmlns="http://www.w3.org/2000/svg" xmlns:xlink="http://www.w3.org/1999/xlink" xml:space="preserve" style="fill-rule:evenodd;clip-rule:evenodd;stroke-linecap:round;stroke-linejoin:round;stroke-miterlimit:1.41421;">
    <g transform="matrix(1,0,0,1,-455.134,-245.439)">
        <g transform="matrix(1,0,0,1,1,-3.69531)">
            <path d="M683,284.69C683,265.544 667.456,250 648.31,250L489.69,250C470.544,250 455,265.544 455,284.69L455,443.31C455,462.456 470.544,478 489.69,478L648.31,478C667.456,478 683,462.456 683,443.31L683,284.69Z" style="fill:rgb(223,223,223);stroke-width:1px;stroke:rgb(255,133,0);"/>
        </g>
        <g transform="matrix(1.33333,0,0,1.30986,-180.667,-100.789)">
            <path d="M531.5,293C552.197,293 569,308.907 569,328.5C569,348.093 552.197,364 531.5,364C510.803,364 494,348.093 494,328.5C494,308.907 510.803,293 531.5,293ZM531.5,310.75C541.848,310.75 550.25,318.704 550.25,328.5C550.25,338.296 541.848,346.25 531.5,346.25C521.152,346.25 512.75,338.296 512.75,328.5C512.75,318.704 521.152,310.75 531.5,310.75Z" style="fill:rgb(187,67,255);"/>
        </g>
        <g transform="matrix(0.916067,0.681899,-0.716173,0.872226,289.977,-331.473)">
            <path d="M533.489,349.34L533.745,349.174L534.008,349.021L534.278,348.88L534.554,348.751L534.837,348.635L535.125,348.532L535.418,348.442L535.715,348.366L536.016,348.303L536.319,348.254L536.626,348.219L536.934,348.197L537.243,348.19L537.591,348.189L537.922,348.187L538.252,348.184L538.58,348.179L538.906,348.173L539.231,348.166L539.554,348.157L539.875,348.148L540.196,348.137L540.514,348.125L540.832,348.112L541.147,348.097L541.462,348.082L541.775,348.065L542.087,348.047L542.398,348.029L542.707,348.009L543.015,347.988L543.323,347.966L543.629,347.943L543.933,347.92L544.237,347.895L544.54,347.869L544.843,347.843L545.144,347.815L545.444,347.787L545.744,347.758L546.042,347.728L546.339,347.697L546.637,347.665L546.933,347.633L547.229,347.6L547.524,347.566L547.818,347.531L548.112,347.496L548.405,347.46L548.698,347.423L548.99,347.386L549.282,347.348L549.57,347.309L550.156,347.23L550.736,347.149L551.316,347.066L551.894,346.98L552.473,346.893L553.051,346.805L553.629,346.715L554.207,346.624L554.786,346.531L555.365,346.438L556.529,346.249L557.697,346.059L558.87,345.869L559.462,345.775L560.056,345.68L560.652,345.587L561.251,345.495L561.853,345.403L562.458,345.314L563.067,345.225L563.68,345.139L564.292,345.055L564.605,345.013L564.916,344.972L565.228,344.932L565.54,344.892L565.854,344.853L566.169,344.815L566.485,344.778L566.802,344.741L567.121,344.705L567.44,344.67L567.761,344.636L568.083,344.602L568.406,344.57L568.731,344.538L569.057,344.507L569.384,344.478L569.712,344.449L570.042,344.422L570.373,344.395L570.705,344.37L571.039,344.345L571.374,344.322L571.711,344.3L572.049,344.28L572.388,344.26L572.729,344.242L573.072,344.225L573.416,344.209L573.761,344.195L574.108,344.182L574.457,344.171L574.806,344.161L575.158,344.152L575.512,344.145L575.866,344.14L576.222,344.136L576.581,344.133L576.925,344.133L577.235,344.139L577.546,344.159L577.855,344.193L578.164,344.241L578.471,344.302L578.775,344.377L579.077,344.466L579.375,344.567L579.669,344.682L579.958,344.81L580.242,344.95L580.52,345.102L580.792,345.266L581.057,345.442L581.314,345.63L581.564,345.828L581.805,346.037L582.038,346.256L582.261,346.485L582.474,346.723L582.677,346.97L582.869,347.225L583.051,347.488L583.221,347.759L583.38,348.036L583.526,348.319L583.661,348.608L583.783,348.903L583.892,349.202L583.988,349.504L584.071,349.811L584.141,350.12L584.197,350.431L584.24,350.743L584.269,351.057L584.284,351.371L584.286,351.685L584.274,351.997L584.248,352.309L584.209,352.618L584.156,352.924L584.089,353.228L584.01,353.527L583.917,353.822L583.811,354.111L583.692,354.395L583.561,354.673L583.417,354.944L583.261,355.208L583.094,355.464L582.915,355.712L582.725,355.951L582.525,356.181L582.314,356.401L582.094,356.61L581.863,356.81L581.624,356.998L581.377,357.175L581.121,357.341L580.858,357.495L580.588,357.636L580.311,357.765L580.029,357.881L579.741,357.983L579.448,358.073L579.151,358.149L578.85,358.212L578.546,358.261L578.24,358.297L577.932,358.318L577.622,358.326L577.31,358.326L577.014,358.328L576.718,358.332L576.424,358.336L576.131,358.342L575.839,358.349L575.547,358.358L575.257,358.367L574.968,358.378L574.679,358.39L574.391,358.403L574.104,358.417L573.818,358.432L573.532,358.449L573.247,358.466L572.963,358.485L572.679,358.504L572.396,358.525L572.113,358.547L571.831,358.569L571.549,358.593L571.268,358.617L570.987,358.643L570.706,358.669L570.426,358.696L570.146,358.725L569.866,358.754L569.587,358.783L569.307,358.814L569.028,358.846L568.749,358.878L568.469,358.911L568.191,358.945L567.912,358.979L567.632,359.015L567.353,359.051L567.074,359.088L566.798,359.124L566.235,359.202L565.675,359.281L565.114,359.362L564.551,359.446L563.987,359.531L563.421,359.618L562.853,359.707L562.283,359.798L561.712,359.889L560.556,360.076L559.391,360.266L558.214,360.457L557.617,360.553L557.018,360.649L556.414,360.744L555.806,360.838L555.193,360.932L554.576,361.025L553.953,361.117L553.326,361.207L552.693,361.295L552.059,361.381L551.734,361.424L551.412,361.466L551.088,361.508L550.762,361.549L550.435,361.589L550.107,361.628L549.777,361.667L549.445,361.705L549.112,361.743L548.778,361.779L548.442,361.815L548.104,361.85L547.764,361.884L547.423,361.918L547.08,361.95L546.736,361.981L546.39,362.012L546.042,362.041L545.693,362.07L545.341,362.097L544.988,362.123L544.634,362.148L544.277,362.173L543.919,362.196L543.559,362.217L543.196,362.238L542.833,362.257L542.467,362.275L542.099,362.292L541.73,362.307L541.358,362.321L540.985,362.334L540.609,362.345L540.232,362.355L539.852,362.364L539.471,362.371L539.088,362.376L538.702,362.38L538.315,362.382L537.94,362.383L537.629,362.377L537.319,362.357L537.009,362.323L536.701,362.275L536.394,362.213L536.089,362.138L535.788,362.05L535.49,361.948L535.196,361.833L534.907,361.706L534.623,361.566L534.345,361.413L534.073,361.249L533.808,361.073L533.551,360.886L533.301,360.687L533.06,360.478L532.827,360.259L532.604,360.03L532.391,359.792L532.188,359.545L531.996,359.29L531.814,359.027L531.644,358.757L531.485,358.479L531.339,358.196L531.204,357.907L531.083,357.612L530.973,357.314L530.877,357.011L530.794,356.705L530.724,356.396L530.668,356.084L530.625,355.772L530.596,355.458L530.581,355.144L530.579,354.83L530.591,354.518L530.617,354.206L530.657,353.897L530.71,353.591L530.776,353.288L530.856,352.988L530.949,352.694L531.055,352.404L531.174,352.12L531.305,351.842L531.449,351.571L531.604,351.307L531.772,351.051L531.95,350.803L532.14,350.564L532.341,350.335L532.552,350.115L532.772,349.905L533.002,349.705L533.241,349.517L533.489,349.34Z" style="fill:rgb(187,67,255);"/>
        </g>
        <path d="M595.641,334.246L596.183,334.278L596.722,334.34L597.256,334.433L597.785,334.556L598.305,334.709L598.816,334.892L599.316,335.103L599.802,335.343L600.275,335.61L600.731,335.904L601.17,336.223L601.589,336.567L601.989,336.934L602.367,337.323L602.722,337.733L603.053,338.163L603.359,338.611L603.639,339.076L603.892,339.556L604.117,340.05L604.313,340.556L604.481,341.072L604.618,341.596L604.726,342.128L604.802,342.665L604.849,343.206L604.864,343.748L604.862,346.105L604.858,348.481L604.851,350.869L604.841,353.268L604.829,355.677L604.815,358.096L604.799,360.524L604.782,362.959L604.763,365.402L604.742,367.851L604.721,370.306L604.698,372.766L604.651,377.696L604.602,382.636L604.554,387.58L604.507,392.521L604.484,394.987L604.463,397.451L604.442,399.911L604.423,402.366L604.406,404.815L604.39,407.258L604.376,409.694L604.364,412.121L604.355,414.54L604.348,416.949L604.344,419.347L604.342,421.74L604.326,422.283L604.28,422.823L604.202,423.36L604.094,423.892L603.956,424.417L603.788,424.933L603.59,425.438L603.365,425.931L603.111,426.411L602.831,426.876L602.524,427.323L602.193,427.753L601.837,428.162L601.459,428.551L601.059,428.918L600.639,429.261L600.199,429.58L599.743,429.873L599.27,430.139L598.783,430.378L598.283,430.589L597.772,430.771L597.251,430.924L596.723,431.046L596.188,431.139L595.649,431.2L595.107,431.231L594.565,431.23L594.023,431.199L593.484,431.137L592.95,431.044L592.421,430.921L591.901,430.768L591.39,430.585L590.89,430.373L590.403,430.134L589.931,429.867L589.475,429.573L589.036,429.254L588.616,428.91L588.217,428.543L587.839,428.154L587.484,427.743L587.153,427.313L586.847,426.865L586.567,426.401L586.314,425.921L586.089,425.427L585.893,424.921L585.725,424.405L585.588,423.88L585.48,423.348L585.403,422.811L585.357,422.271L585.342,421.728L585.344,419.324L585.348,416.904L585.355,414.475L585.365,412.038L585.377,409.593L585.39,407.143L585.406,404.686L585.424,402.224L585.443,399.759L585.463,397.289L585.485,394.818L585.508,392.344L585.555,387.396L585.603,382.449L585.652,377.512L585.699,372.588L585.722,370.136L585.743,367.689L585.763,365.249L585.782,362.817L585.8,360.393L585.816,357.979L585.83,355.576L585.841,353.184L585.851,350.803L585.858,348.436L585.862,346.082L585.864,343.736L585.88,343.194L585.926,342.653L586.004,342.116L586.112,341.584L586.25,341.06L586.418,340.544L586.615,340.038L586.841,339.545L587.095,339.065L587.375,338.601L587.682,338.153L588.013,337.724L588.369,337.314L588.747,336.925L589.147,336.559L589.567,336.215L590.007,335.897L590.463,335.604L590.936,335.337L591.423,335.098L591.923,334.887L592.434,334.705L592.955,334.553L593.483,334.43L594.018,334.338L594.557,334.277L595.099,334.246L595.641,334.246Z" style="fill:rgb(187,67,255);"/>
        <path d="M596.298,334.12L596.955,334.124L597.609,334.131L598.263,334.139L598.914,334.151L599.564,334.165L600.212,334.182L600.859,334.201L601.503,334.223L602.147,334.248L602.789,334.276L603.429,334.306L604.068,334.339L604.706,334.375L605.341,334.414L605.976,334.456L606.61,334.5L607.242,334.547L607.873,334.598L608.502,334.651L609.131,334.707L609.759,334.766L610.385,334.828L611.01,334.893L611.634,334.961L612.257,335.032L612.879,335.106L613.5,335.184L614.119,335.264L614.738,335.348L615.351,335.434L615.666,335.479L615.974,335.524L616.282,335.57L616.59,335.617L616.898,335.665L617.206,335.714L617.513,335.763L617.82,335.813L618.128,335.864L618.435,335.916L618.741,335.968L619.048,336.022L619.354,336.076L619.66,336.131L619.966,336.187L620.272,336.243L620.577,336.301L620.883,336.359L621.188,336.418L621.493,336.478L621.799,336.539L622.103,336.601L622.407,336.663L622.712,336.727L623.017,336.791L623.321,336.856L623.625,336.922L623.929,336.988L624.233,337.056L624.536,337.124L624.84,337.194L625.143,337.264L625.447,337.335L625.75,337.407L626.053,337.479L626.356,337.553L626.659,337.627L626.961,337.703L627.264,337.779L627.567,337.856L627.869,337.934L628.171,338.012L628.473,338.092L628.776,338.172L629.078,338.254L629.379,338.336L629.681,338.419L629.983,338.503L630.285,338.588L630.587,338.674L630.888,338.76L631.19,338.848L631.491,338.936L631.793,339.026L632.094,339.116L632.395,339.207L632.697,339.299L632.998,339.392L633.299,339.485L633.6,339.58L633.901,339.675L634.202,339.772L634.504,339.869L634.805,339.967L635.105,340.066L635.424,340.172L635.607,340.234L635.807,340.305L636.005,340.376L636.2,340.449L636.394,340.524L636.587,340.601L636.778,340.679L636.967,340.759L637.154,340.84L637.339,340.922L637.524,341.007L637.706,341.092L637.884,341.178L638.062,341.265L638.238,341.354L638.412,341.444L638.583,341.535L638.754,341.627L638.921,341.72L639.086,341.813L639.251,341.908L639.413,342.003L639.571,342.099L639.728,342.195L639.884,342.292L640.037,342.39L640.188,342.487L640.337,342.586L640.484,342.685L640.628,342.784L640.771,342.883L640.926,342.992L641.186,343.181L641.453,343.38L641.711,343.578L641.961,343.775L642.203,343.971L642.437,344.166L642.664,344.359L642.883,344.549L643.095,344.737L643.299,344.921L643.497,345.103L643.686,345.279L643.869,345.453L644.047,345.623L644.217,345.788L644.386,345.953L644.686,346.25L644.969,346.534L645.227,346.794L645.463,347.03L645.681,347.247L645.773,347.336L645.863,347.424L645.947,347.505L646.025,347.579L646.097,347.646L646.161,347.705L646.219,347.757L646.271,347.803L646.315,347.841L646.352,347.872L646.374,347.891L646.453,347.931L646.695,348.063L646.928,348.197L647.152,348.332L647.366,348.467L647.572,348.603L647.772,348.74L647.963,348.876L648.145,349.011L648.322,349.147L648.494,349.283L648.66,349.419L648.818,349.552L648.971,349.685L649.12,349.818L649.264,349.95L649.405,350.082L649.541,350.213L649.672,350.342L649.798,350.469L649.924,350.599L650.045,350.727L650.163,350.853L650.294,350.996L650.5,351.228L650.713,351.477L650.916,351.722L651.111,351.964L651.299,352.206L651.48,352.445L651.655,352.682L651.826,352.918L651.99,353.152L652.15,353.384L652.306,353.615L652.458,353.846L652.606,354.075L652.75,354.301L652.891,354.527L653.029,354.752L653.164,354.975L653.297,355.198L653.427,355.419L653.553,355.638L653.678,355.856L653.799,356.072L653.919,356.286L654.036,356.498L654.151,356.71L654.263,356.918L654.374,357.125L654.486,357.338L654.692,357.731L654.893,358.123L655.086,358.502L655.269,358.868L655.444,359.22L655.61,359.558L655.905,360.163L656.161,360.689L656.267,360.904L656.37,361.111L656.521,361.417L656.681,361.745L656.839,362.071L656.994,362.398L657.147,362.725L657.297,363.051L657.445,363.378L657.59,363.704L657.732,364.031L657.872,364.359L658.009,364.687L658.144,365.015L658.275,365.344L658.404,365.674L658.531,366.005L658.654,366.336L658.774,366.669L658.892,367.003L659.007,367.337L659.118,367.674L659.227,368.01L659.332,368.348L659.434,368.686L659.533,369.026L659.63,369.368L659.722,369.709L659.811,370.052L659.898,370.395L659.981,370.741L660.061,371.086L660.137,371.431L660.211,371.78L660.281,372.128L660.347,372.475L660.411,372.826L660.472,373.177L660.53,373.528L660.585,373.88L660.637,374.233L660.686,374.586L660.732,374.94L660.775,375.296L660.816,375.653L660.854,376.011L660.889,376.369L660.923,376.73L660.953,377.092L660.982,377.454L661.008,377.818L661.032,378.185L661.054,378.552L661.073,378.921L661.091,379.294L661.107,379.668L661.122,380.044L661.134,380.424L661.145,380.805L661.154,381.19L661.162,381.578L661.168,381.968L661.172,382.362L661.176,382.761L661.177,383.163L661.178,383.527L661.181,383.588L661.186,383.676L661.194,383.797L661.206,383.946L661.22,384.117L661.236,384.308L661.275,384.757L661.318,385.253L661.341,385.53L661.364,385.816L661.386,386.115L661.407,386.425L661.426,386.749L661.443,387.086L661.456,387.418L661.462,387.611L661.466,387.793L661.47,387.979L661.471,388.173L661.472,388.364L661.47,388.561L661.467,388.767L661.461,388.976L661.454,389.189L661.443,389.406L661.43,389.63L661.413,389.862L661.392,390.1L661.367,390.348L661.337,390.601L661.301,390.866L661.259,391.139L661.209,391.424L661.151,391.722L661.083,392.029L661.004,392.351L660.911,392.689L660.803,393.042L660.677,393.413L660.529,393.803L660.388,394.137L660.245,394.455L660.131,394.703L660.016,394.948L659.9,395.19L659.783,395.432L659.665,395.669L659.547,395.904L659.428,396.136L659.308,396.366L659.187,396.593L659.066,396.817L658.944,397.041L658.822,397.26L658.701,397.476L658.578,397.691L658.455,397.904L658.332,398.113L658.209,398.32L658.086,398.524L657.963,398.727L657.84,398.927L657.717,399.124L657.595,399.319L657.472,399.512L657.35,399.703L657.224,399.897L656.988,400.258L656.749,400.618L656.512,400.969L656.278,401.312L656.048,401.645L655.821,401.97L655.6,402.286L655.382,402.594L655.169,402.894L654.763,403.466L654.375,404.014L654.194,404.27L654.018,404.521L653.85,404.765L653.689,404.999L653.535,405.226L653.403,405.424L653.393,405.44L653.389,405.446L653.376,405.467L653.356,405.501L653.331,405.546L653.299,405.604L653.263,405.672L653.221,405.752L653.175,405.842L653.126,405.942L653.073,406.05L653.016,406.168L652.957,406.293L652.894,406.429L652.829,406.571L652.764,406.713L652.617,407.041L652.464,407.385L652.131,408.142L651.949,408.551L651.761,408.971L651.659,409.197L651.555,409.423L651.45,409.651L651.341,409.884L651.228,410.121L651.111,410.362L650.991,410.606L650.867,410.854L650.738,411.107L650.605,411.362L650.467,411.621L650.323,411.884L650.173,412.151L650.018,412.421L649.856,412.695L649.687,412.972L649.52,413.236L649.419,413.393L649.325,413.536L649.228,413.681L649.13,413.825L649.03,413.969L648.927,414.114L648.82,414.263L648.711,414.41L648.6,414.559L648.486,414.708L648.368,414.858L648.246,415.011L648.123,415.16L647.996,415.312L647.865,415.465L647.729,415.619L647.591,415.773L647.448,415.927L647.3,416.082L647.151,416.235L646.995,416.391L646.835,416.545L646.672,416.699L646.499,416.856L646.324,417.01L646.146,417.163L645.961,417.316L645.772,417.468L645.575,417.619L645.373,417.769L645.168,417.916L644.954,418.063L644.734,418.209L644.509,418.351L644.281,418.489L644.044,418.626L643.802,418.76L643.59,418.871L643.203,419.067L642.85,419.244L642.498,419.419L642.144,419.592L641.79,419.764L641.435,419.935L641.079,420.103L640.723,420.27L640.365,420.435L640.008,420.599L639.649,420.761L639.29,420.922L638.93,421.081L638.57,421.238L638.209,421.393L637.847,421.548L637.485,421.7L637.123,421.851L636.759,422.001L636.395,422.149L636.03,422.295L635.666,422.44L635.3,422.583L634.934,422.724L634.568,422.865L634.2,423.003L633.833,423.14L633.466,423.276L633.097,423.41L632.728,423.542L632.359,423.673L631.989,423.803L631.619,423.931L631.248,424.057L630.877,424.182L630.506,424.306L630.134,424.428L629.762,424.548L629.39,424.667L629.017,424.785L628.644,424.901L628.27,425.016L627.897,425.129L627.523,425.241L627.149,425.351L626.773,425.46L626.398,425.567L626.023,425.673L625.648,425.778L625.272,425.881L624.896,425.982L624.52,426.082L624.144,426.181L623.767,426.279L623.39,426.375L623.013,426.469L622.636,426.562L622.259,426.654L621.881,426.744L621.504,426.833L621.126,426.921L620.748,427.007L620.37,427.091L619.991,427.175L619.613,427.257L619.235,427.337L618.857,427.417L618.478,427.495L618.1,427.571L617.721,427.646L617.342,427.72L616.964,427.792L616.585,427.863L616.206,427.933L615.828,428.001L615.449,428.068L615.07,428.134L614.692,428.198L614.313,428.261L613.934,428.323L613.556,428.383L613.178,428.442L612.799,428.5L612.421,428.556L612.042,428.611L611.664,428.665L611.286,428.717L610.908,428.769L610.531,428.818L610.153,428.867L609.775,428.914L609.398,428.96L609.021,429.004L608.644,429.048L608.267,429.09L607.89,429.13L607.514,429.17L607.138,429.208L606.762,429.245L606.387,429.28L606.011,429.315L605.635,429.348L605.26,429.379L604.886,429.41L604.511,429.439L604.137,429.467L603.763,429.494L603.39,429.519L603.016,429.543L602.643,429.566L602.271,429.588L601.899,429.608L601.527,429.627L601.155,429.645L600.784,429.662L600.413,429.677L600.043,429.691L599.673,429.704L599.303,429.716L598.934,429.726L598.565,429.736L598.197,429.744L597.829,429.75L597.462,429.756L597.095,429.76L596.728,429.763L596.362,429.765L596.013,429.766L595.48,429.752L594.949,429.708L594.421,429.634L593.898,429.531L593.382,429.399L592.874,429.238L592.376,429.049L591.889,428.832L591.415,428.588L590.956,428.318L590.512,428.023L590.086,427.703L589.678,427.36L589.29,426.995L588.924,426.608L588.579,426.201L588.258,425.776L587.961,425.334L587.69,424.875L587.444,424.402L587.226,423.916L587.035,423.419L586.872,422.911L586.738,422.395L586.633,421.873L586.558,421.345L586.512,420.814L586.496,420.282L586.511,419.749L586.554,419.218L586.628,418.69L586.731,418.167L586.863,417.651L587.024,417.143L587.213,416.645L587.43,416.158L587.674,415.684L587.944,415.225L588.239,414.781L588.559,414.355L588.902,413.947L589.268,413.56L589.654,413.193L590.061,412.848L590.486,412.527L590.928,412.23L591.387,411.959L591.86,411.713L592.346,411.495L592.844,411.304L593.351,411.141L593.867,411.007L594.389,410.903L594.917,410.827L595.448,410.782L595.98,410.766L596.298,410.765L596.601,410.764L596.904,410.761L597.208,410.758L597.513,410.753L597.817,410.747L598.123,410.741L598.429,410.733L598.735,410.724L599.041,410.715L599.349,410.704L599.657,410.692L599.965,410.679L600.273,410.666L600.582,410.651L600.891,410.635L601.2,410.618L601.511,410.6L601.821,410.581L602.131,410.561L602.443,410.54L602.754,410.517L603.065,410.494L603.377,410.47L603.69,410.444L604.002,410.418L604.314,410.391L604.627,410.362L604.94,410.332L605.254,410.302L605.567,410.27L605.881,410.237L606.194,410.203L606.508,410.168L606.823,410.132L607.137,410.095L607.451,410.057L607.765,410.017L608.08,409.977L608.395,409.936L608.709,409.893L609.024,409.849L609.339,409.805L609.653,409.759L609.968,409.712L610.283,409.664L610.597,409.615L610.913,409.565L611.227,409.514L611.542,409.461L611.856,409.408L612.171,409.353L612.485,409.298L612.8,409.241L613.114,409.183L613.428,409.124L613.742,409.064L614.056,409.003L614.369,408.941L614.683,408.877L614.996,408.813L615.309,408.747L615.622,408.681L615.935,408.613L616.247,408.544L616.559,408.474L616.871,408.403L617.182,408.331L617.494,408.258L617.804,408.183L618.115,408.108L618.426,408.031L618.736,407.953L619.045,407.875L619.354,407.795L619.663,407.714L619.972,407.631L620.28,407.548L620.588,407.464L620.895,407.378L621.202,407.291L621.509,407.204L621.814,407.115L622.12,407.025L622.425,406.934L622.73,406.842L623.034,406.748L623.337,406.654L623.64,406.558L623.942,406.462L624.244,406.364L624.546,406.265L624.846,406.165L625.146,406.064L625.446,405.962L625.745,405.858L626.043,405.754L626.34,405.648L626.638,405.542L626.934,405.434L627.229,405.325L627.525,405.215L627.818,405.104L628.112,404.992L628.405,404.878L628.697,404.764L628.989,404.648L629.279,404.531L629.569,404.414L629.858,404.295L630.146,404.175L630.434,404.054L630.72,403.932L631.006,403.808L631.291,403.684L631.575,403.558L631.858,403.432L632.141,403.304L632.423,403.175L632.703,403.045L632.983,402.914L633.262,402.782L633.54,402.649L633.781,402.532L633.799,402.499L633.854,402.394L633.91,402.284L633.97,402.164L634.032,402.037L634.095,401.906L634.161,401.768L634.229,401.623L634.299,401.473L634.369,401.318L634.44,401.163L634.594,400.819L634.751,400.464L635.086,399.704L635.265,399.299L635.449,398.89L635.55,398.668L635.651,398.45L635.753,398.229L635.86,398.002L635.971,397.772L636.085,397.539L636.203,397.301L636.326,397.06L636.454,396.814L636.588,396.563L636.728,396.308L636.874,396.048L637.028,395.783L637.191,395.513L637.364,395.237L637.531,394.978L637.768,394.623L637.99,394.296L638.211,393.975L638.428,393.661L638.643,393.354L638.858,393.049L639.269,392.468L639.675,391.898L639.87,391.622L640.062,391.35L640.251,391.082L640.435,390.817L640.615,390.556L640.791,390.299L640.962,390.045L641.13,389.793L641.298,389.536L641.373,389.42L641.452,389.297L641.529,389.176L641.605,389.054L641.68,388.933L641.754,388.813L641.827,388.694L641.899,388.573L641.97,388.454L642.04,388.336L642.107,388.219L642.174,388.101L642.241,387.983L642.306,387.866L642.369,387.75L642.432,387.634L642.444,387.612L642.433,387.452L642.419,387.264L642.403,387.065L642.386,386.861L642.347,386.409L642.306,385.943L642.285,385.691L642.264,385.432L642.244,385.164L642.224,384.884L642.207,384.587L642.193,384.293L642.187,384.111L642.182,383.937L642.179,383.756L642.178,383.604L642.178,383.222L642.176,382.883L642.173,382.553L642.169,382.229L642.164,381.912L642.158,381.601L642.151,381.299L642.143,381.004L642.133,380.715L642.123,380.433L642.111,380.157L642.098,379.889L642.084,379.626L642.069,379.369L642.052,379.119L642.035,378.875L642.016,378.636L641.996,378.403L641.975,378.176L641.953,377.954L641.93,377.736L641.906,377.524L641.881,377.317L641.854,377.113L641.827,376.915L641.798,376.72L641.768,376.529L641.737,376.341L641.706,376.157L641.672,375.976L641.638,375.796L641.602,375.62L641.566,375.447L641.527,375.273L641.488,375.102L641.447,374.933L641.405,374.764L641.361,374.595L641.315,374.427L641.268,374.26L641.219,374.092L641.168,373.923L641.115,373.753L641.06,373.582L641.003,373.411L640.943,373.236L640.882,373.061L640.817,372.883L640.75,372.702L640.68,372.519L640.607,372.333L640.532,372.144L640.453,371.952L640.371,371.756L640.286,371.557L640.197,371.353L640.105,371.146L640.01,370.935L639.91,370.719L639.808,370.499L639.701,370.275L639.59,370.045L639.476,369.811L639.346,369.549L639.225,369.306L639.093,369.035L638.828,368.492L638.548,367.919L638.408,367.634L638.264,367.344L638.118,367.053L637.971,366.762L637.822,366.472L637.668,366.178L637.598,366.045L637.523,365.905L637.448,365.765L637.374,365.63L637.3,365.496L637.226,365.364L637.154,365.235L637.081,365.108L637.01,364.985L636.941,364.867L636.872,364.751L636.804,364.639L636.739,364.533L636.675,364.431L636.613,364.333L636.554,364.242L636.498,364.157L636.467,364.11L636.365,364.048L636.211,363.952L636.06,363.854L635.909,363.756L635.764,363.659L635.622,363.561L635.463,363.45L635.209,363.268L634.946,363.072L634.694,362.878L634.452,362.685L634.219,362.494L633.994,362.305L633.779,362.12L633.573,361.938L633.375,361.76L633.183,361.584L633,361.412L632.825,361.246L632.655,361.083L632.492,360.924L632.33,360.765L632.041,360.478L631.767,360.204L631.513,359.948L631.278,359.713L631.052,359.489L630.956,359.395L630.858,359.3L630.765,359.21L630.675,359.125L630.588,359.044L630.506,358.969L630.428,358.899L630.353,358.833L630.283,358.771L630.216,358.714L630.152,358.662L630.092,358.613L630.036,358.568L629.982,358.527L629.933,358.49L629.871,358.446L629.864,358.44L629.842,358.425L629.821,358.411L629.801,358.397L629.782,358.385L629.763,358.373L629.745,358.361L629.728,358.351L629.711,358.34L629.694,358.33L629.678,358.321L629.665,358.313L629.649,358.304L629.634,358.296L629.62,358.288L629.606,358.281L629.593,358.274L629.58,358.267L629.567,358.261L629.552,358.254L629.54,358.248L629.528,358.243L629.515,358.237L629.503,358.231L629.49,358.226L629.476,358.22L629.463,358.215L629.45,358.21L629.435,358.204L629.42,358.199L629.407,358.194L629.374,358.183L629.139,358.105L628.887,358.022L628.635,357.94L628.384,357.859L628.132,357.778L627.88,357.698L627.628,357.619L627.377,357.541L627.126,357.464L626.874,357.387L626.623,357.311L626.371,357.236L626.12,357.161L625.869,357.088L625.618,357.015L625.367,356.943L625.115,356.871L624.864,356.8L624.614,356.731L624.362,356.662L624.111,356.593L623.859,356.525L623.608,356.459L623.357,356.392L623.106,356.327L622.854,356.262L622.603,356.198L622.351,356.135L622.099,356.072L621.848,356.01L621.596,355.949L621.344,355.889L621.092,355.829L620.84,355.77L620.588,355.712L620.335,355.654L620.082,355.597L619.83,355.541L619.577,355.486L619.324,355.431L619.071,355.377L618.818,355.323L618.565,355.271L618.311,355.219L618.056,355.167L617.803,355.117L617.548,355.066L617.294,355.017L617.039,354.969L616.784,354.921L616.529,354.873L616.274,354.827L616.018,354.781L615.762,354.735L615.506,354.691L615.249,354.647L614.992,354.604L614.736,354.561L614.479,354.519L614.221,354.478L613.963,354.437L613.705,354.397L613.446,354.358L613.187,354.319L612.928,354.281L612.675,354.244L612.149,354.17L611.627,354.1L611.104,354.032L610.579,353.967L610.053,353.904L609.525,353.844L608.996,353.786L608.464,353.731L607.931,353.678L607.396,353.627L606.859,353.58L606.32,353.534L605.779,353.491L605.236,353.45L604.691,353.412L604.144,353.376L603.594,353.343L603.042,353.312L602.488,353.283L601.931,353.257L601.372,353.233L600.811,353.211L600.247,353.192L599.68,353.174L599.111,353.16L598.539,353.147L597.965,353.137L597.388,353.129L596.807,353.124L596.225,353.12L595.621,353.119L595.089,353.103L594.558,353.057L594.03,352.982L593.508,352.877L592.992,352.743L592.485,352.58L591.987,352.389L591.501,352.171L591.028,351.925L590.57,351.654L590.127,351.357L589.702,351.035L589.295,350.691L588.909,350.324L588.544,349.936L588.201,349.528L587.881,349.102L587.586,348.658L587.316,348.199L587.072,347.725L586.855,347.238L586.666,346.74L586.505,346.232L586.373,345.716L586.27,345.193L586.197,344.665L586.153,344.134L586.139,343.601L586.155,343.069L586.201,342.538L586.276,342.01L586.381,341.488L586.515,340.972L586.678,340.465L586.869,339.967L587.088,339.481L587.333,339.008L587.605,338.55L587.902,338.107L588.223,337.682L588.567,337.276L588.934,336.889L589.322,336.524L589.73,336.181L590.156,335.861L590.6,335.566L591.059,335.296L591.533,335.052L592.02,334.835L592.518,334.646L593.026,334.486L593.542,334.353L594.065,334.25L594.593,334.177L595.124,334.133L595.657,334.119L596.298,334.12Z" style="fill:rgb(187,67,255);"/>
        <path d="M606.962,345.336L607.687,345.337L608.424,345.339L609.174,345.344L609.929,345.35L610.317,345.355L610.704,345.36L611.093,345.367L611.484,345.374L611.877,345.382L612.272,345.392L612.67,345.403L613.069,345.415L613.469,345.428L613.872,345.444L614.277,345.46L614.682,345.479L615.09,345.499L615.499,345.521L615.909,345.545L616.32,345.571L616.733,345.599L617.147,345.63L617.562,345.663L617.978,345.698L618.394,345.736L618.813,345.777L619.232,345.821L619.651,345.867L620.072,345.917L620.494,345.97L620.916,346.026L621.339,346.086L621.752,346.148L621.974,346.182L622.186,346.216L622.399,346.252L622.612,346.288L622.825,346.325L623.037,346.363L623.25,346.402L623.464,346.443L623.677,346.484L623.89,346.527L624.104,346.571L624.318,346.616L624.532,346.662L624.747,346.71L624.96,346.758L625.175,346.808L625.39,346.86L625.605,346.913L625.819,346.967L626.034,347.023L626.249,347.08L626.465,347.138L626.68,347.199L626.895,347.26L627.111,347.324L627.327,347.389L627.543,347.455L627.759,347.524L627.975,347.594L628.191,347.666L628.408,347.739L628.624,347.815L628.84,347.892L629.058,347.972L629.274,348.054L629.49,348.137L629.707,348.223L629.924,348.311L630.14,348.4L630.358,348.493L630.575,348.588L630.791,348.684L631.007,348.784L631.225,348.886L631.441,348.99L631.602,349.069L631.664,349.1L631.683,349.108L631.696,349.114L631.713,349.121L631.734,349.13L631.758,349.139L631.786,349.149L631.817,349.16L631.854,349.173L631.896,349.187L631.942,349.202L631.993,349.218L632.049,349.234L632.111,349.252L632.18,349.271L632.252,349.291L632.331,349.312L632.417,349.334L632.5,349.355L632.715,349.408L632.943,349.463L633.478,349.59L633.788,349.664L634.112,349.744L634.301,349.793L634.486,349.841L634.68,349.893L634.881,349.948L635.087,350.007L635.301,350.07L635.523,350.138L635.751,350.211L635.985,350.288L636.226,350.371L636.474,350.46L636.726,350.555L636.985,350.657L637.249,350.765L637.518,350.881L637.792,351.005L638.07,351.137L638.351,351.277L638.635,351.425L638.922,351.583L639.211,351.749L639.502,351.924L639.771,352.095L639.937,352.204L640.082,352.302L640.228,352.403L640.374,352.506L640.518,352.611L640.661,352.717L640.805,352.826L640.949,352.938L641.089,353.05L641.232,353.168L641.374,353.287L641.512,353.405L641.652,353.528L641.788,353.651L641.924,353.777L642.062,353.907L642.196,354.037L642.322,354.161L642.607,354.45L642.881,354.731L643.15,355.012L643.416,355.292L643.677,355.571L643.935,355.849L644.19,356.125L644.44,356.399L644.689,356.673L644.936,356.947L645.414,357.479L646.346,358.522L646.802,359.032L647.023,359.277L647.244,359.521L647.463,359.762L647.68,359.999L647.895,360.231L648.107,360.46L648.318,360.684L648.527,360.904L648.733,361.118L648.938,361.328L649.139,361.533L649.339,361.732L649.544,361.934L649.635,362.022L649.76,362.143L649.913,362.291L650.093,362.471L650.27,362.652L650.443,362.834L650.614,363.018L650.782,363.205L650.946,363.392L651.109,363.582L651.269,363.773L651.425,363.965L651.578,364.159L651.728,364.353L651.876,364.55L652.021,364.749L652.162,364.947L652.299,365.145L652.435,365.347L652.567,365.548L652.696,365.749L652.823,365.954L652.946,366.157L653.066,366.361L653.182,366.564L653.297,366.77L653.408,366.974L653.515,367.178L653.621,367.386L653.724,367.592L653.823,367.797L653.92,368.003L654.014,368.209L654.106,368.416L654.194,368.62L654.28,368.824L654.364,369.032L654.444,369.235L654.523,369.439L654.599,369.644L654.672,369.847L654.743,370.05L654.812,370.254L654.878,370.456L654.942,370.656L655.004,370.858L655.064,371.059L655.121,371.257L655.178,371.459L655.231,371.656L655.282,371.852L655.332,372.05L655.38,372.247L655.426,372.443L655.471,372.636L655.514,372.832L655.554,373.023L655.594,373.217L655.631,373.409L655.667,373.598L655.702,373.79L655.735,373.977L655.767,374.167L655.798,374.355L655.827,374.54L655.855,374.728L655.881,374.911L655.908,375.107L655.953,375.46L655.996,375.823L656.035,376.183L656.069,376.539L656.1,376.891L656.127,377.239L656.152,377.586L656.173,377.929L656.192,378.268L656.208,378.605L656.222,378.939L656.234,379.269L656.244,379.595L656.252,379.918L656.258,380.239L656.263,380.556L656.267,380.871L656.269,381.182L656.271,381.495L656.272,382.095L656.271,382.691L656.27,382.936L656.33,383.033L656.525,383.38L656.706,383.735L656.871,384.096L657.022,384.465L657.157,384.839L657.276,385.219L657.379,385.603L657.465,385.992L657.536,386.383L657.59,386.777L657.627,387.174L657.648,387.571L657.652,387.969L657.65,388.16L657.642,388.438L657.629,388.703L657.612,388.961L657.592,389.209L657.569,389.448L657.544,389.677L657.516,389.902L657.487,390.122L657.456,390.332L657.424,390.54L657.39,390.745L657.355,390.943L657.32,391.138L657.283,391.328L657.245,391.517L657.207,391.703L657.168,391.886L657.128,392.066L657.085,392.254L657.007,392.585L656.924,392.922L656.84,393.248L656.756,393.562L656.672,393.867L656.589,394.162L656.506,394.447L656.424,394.72L656.345,394.98L656.268,395.229L656.194,395.464L656.123,395.684L656.056,395.891L655.99,396.091L655.881,396.412L655.79,396.676L655.718,396.88L655.578,397.251L655.422,397.617L655.251,397.975L655.066,398.326L654.865,398.67L654.651,399.004L654.423,399.329L654.181,399.644L653.927,399.949L653.66,400.243L653.381,400.526L653.09,400.797L652.788,401.055L652.476,401.301L652.154,401.533L651.822,401.751L651.482,401.956L651.133,402.146L650.776,402.321L650.413,402.481L650.043,402.626L649.668,402.756L649.287,402.869L648.902,402.967L648.513,403.048L648.121,403.113L647.727,403.162L647.331,403.194L646.934,403.209L646.537,403.208L646.14,403.191L645.745,403.156L645.351,403.105L644.959,403.038L644.571,402.955L644.186,402.855L643.806,402.739L643.431,402.608L643.062,402.461L642.7,402.299L642.345,402.121L641.997,401.929L641.657,401.723L641.327,401.503L641.006,401.269L640.695,401.021L640.395,400.761L640.106,400.489L639.828,400.205L639.563,399.909L639.31,399.603L639.07,399.286L638.844,398.96L638.631,398.624L638.433,398.28L638.249,397.928L638.081,397.568L637.927,397.202L637.789,396.83L637.666,396.452L637.559,396.069L637.469,395.683L637.395,395.292L637.337,394.9L637.295,394.504L637.27,394.108L637.262,393.711L637.262,384.929L637.263,384.339L637.265,383.754L637.271,382.626L637.272,382.089L637.271,381.562L637.27,381.313L637.268,381.063L637.265,380.819L637.261,380.58L637.256,380.345L637.251,380.114L637.244,379.889L637.236,379.669L637.227,379.456L637.217,379.247L637.206,379.043L637.194,378.845L637.18,378.654L637.165,378.467L637.149,378.286L637.133,378.112L637.115,377.945L637.096,377.784L637.074,377.617L637.065,377.553L637.055,377.478L637.044,377.409L637.033,377.337L637.022,377.269L637.011,377.204L636.999,377.137L636.988,377.076L636.976,377.013L636.965,376.954L636.953,376.897L636.941,376.838L636.929,376.786L636.917,376.731L636.905,376.68L636.893,376.632L636.881,376.585L636.869,376.538L636.856,376.493L636.845,376.453L636.833,376.411L636.822,376.372L636.811,376.336L636.799,376.299L636.787,376.265L636.777,376.234L636.766,376.203L636.755,376.173L636.746,376.146L636.735,376.12L636.725,376.094L636.717,376.074L636.707,376.051L636.698,376.03L636.691,376.013L636.683,375.996L636.675,375.98L636.668,375.964L636.661,375.951L636.656,375.941L636.649,375.928L636.643,375.917L636.639,375.909L636.633,375.899L636.629,375.891L636.625,375.885L636.622,375.881L636.619,375.875L636.616,375.871L636.614,375.868L636.611,375.863L636.608,375.86L636.607,375.858L636.605,375.856L636.604,375.854L636.602,375.852L636.6,375.849L636.599,375.849L636.598,375.847L636.596,375.845L636.595,375.843L636.593,375.841L636.59,375.839L636.588,375.836L636.586,375.834L636.553,375.802L636.424,375.678L636.262,375.521L635.963,375.226L635.661,374.925L635.365,374.625L635.075,374.326L634.789,374.029L634.508,373.733L634.232,373.44L633.961,373.148L633.694,372.859L633.432,372.573L633.174,372.29L632.92,372.009L632.668,371.729L632.185,371.19L631.258,370.152L630.814,369.658L630.603,369.424L630.394,369.193L630.187,368.967L629.986,368.748L629.788,368.536L629.595,368.33L629.434,368.16L629.285,368.123L629.067,368.071L628.534,367.944L628.223,367.87L627.894,367.789L627.704,367.74L627.516,367.692L627.321,367.64L627.118,367.585L626.911,367.527L626.696,367.465L626.475,367.399L626.249,367.329L626.016,367.255L625.779,367.176L625.536,367.093L625.288,367.004L625.034,366.91L624.777,366.811L624.517,366.706L624.252,366.596L623.983,366.479L623.711,366.356L623.436,366.226L623.215,366.118L623.112,366.067L623.061,366.043L623.009,366.018L622.954,365.993L622.896,365.967L622.838,365.942L622.778,365.916L622.713,365.889L622.647,365.863L622.58,365.836L622.509,365.809L622.437,365.782L622.363,365.755L622.287,365.727L622.208,365.7L622.128,365.672L622.045,365.645L621.961,365.617L621.874,365.59L621.786,365.563L621.695,365.535L621.604,365.508L621.508,365.481L621.412,365.454L621.315,365.428L621.215,365.401L621.113,365.375L621.009,365.349L620.904,365.323L620.798,365.297L620.689,365.272L620.578,365.247L620.466,365.222L620.353,365.197L620.237,365.173L620.121,365.149L620.002,365.125L619.882,365.102L619.761,365.079L619.638,365.056L619.513,365.034L619.388,365.012L619.261,364.991L619.133,364.969L619.003,364.949L618.881,364.93L618.604,364.888L618.333,364.85L618.057,364.813L617.776,364.778L617.491,364.744L617.201,364.712L616.907,364.681L616.61,364.653L616.309,364.625L616.003,364.599L615.695,364.575L615.383,364.552L615.069,364.53L614.751,364.51L614.43,364.491L614.107,364.474L613.782,364.457L613.453,364.442L613.123,364.429L612.791,364.416L612.457,364.405L612.12,364.395L611.783,364.386L611.444,364.377L611.103,364.37L610.761,364.364L610.418,364.358L610.074,364.353L609.733,364.349L609.036,364.343L608.341,364.339L607.645,364.337L606.948,364.336L605.554,364.336L605.157,364.328L604.759,364.303L604.364,364.261L603.97,364.203L603.579,364.128L603.192,364.037L602.809,363.93L602.43,363.807L602.057,363.669L601.69,363.514L601.33,363.345L600.978,363.161L600.633,362.962L600.297,362.748L599.971,362.521L599.654,362.281L599.347,362.027L599.051,361.761L598.767,361.482L598.495,361.192L598.235,360.891L597.988,360.579L597.754,360.257L597.534,359.926L597.327,359.585L597.136,359.237L596.959,358.88L596.797,358.517L596.651,358.147L596.52,357.771L596.405,357.39L596.306,357.005L596.223,356.615L596.157,356.223L596.107,355.828L596.074,355.432L596.057,355.034L596.057,354.636L596.074,354.239L596.107,353.842L596.157,353.447L596.223,353.055L596.306,352.666L596.405,352.281L596.52,351.9L596.651,351.524L596.798,351.154L596.959,350.79L597.136,350.434L597.328,350.085L597.534,349.745L597.755,349.414L597.988,349.092L598.236,348.78L598.496,348.479L598.768,348.189L599.052,347.91L599.348,347.644L599.655,347.39L599.972,347.15L600.298,346.923L600.634,346.71L600.979,346.511L601.332,346.326L601.692,346.157L602.058,346.003L602.431,345.864L602.81,345.741L603.193,345.634L603.581,345.543L603.971,345.469L604.365,345.411L604.761,345.369L605.158,345.344L605.556,345.336L606.962,345.336Z" style="fill:rgb(187,67,255);"/>
        <path d="M652.327,377.84L652.623,377.85L652.917,377.869L653.211,377.898L653.505,377.935L653.796,377.982L654.086,378.038L654.375,378.102L654.661,378.176L654.945,378.259L655.226,378.35L655.504,378.45L655.778,378.559L656.05,378.676L656.317,378.801L656.581,378.935L656.84,379.077L657.095,379.227L657.344,379.385L657.589,379.55L657.829,379.723L658.063,379.903L658.291,380.091L658.514,380.285L658.73,380.487L658.94,380.695L659.143,380.909L659.34,381.13L659.529,381.356L659.712,381.589L659.887,381.827L660.055,382.07L660.215,382.319L660.367,382.572L660.511,382.83L660.647,383.092L660.775,383.358L660.895,383.628L661.006,383.902L661.108,384.179L661.202,384.46L661.287,384.743L661.364,385.028L661.431,385.316L661.489,385.605L661.539,385.897L661.579,386.189L661.61,386.483L661.632,386.778L661.645,387.073L661.649,387.369L661.648,387.578L661.646,387.817L661.642,388.058L661.636,388.297L661.629,388.532L661.621,388.771L661.61,389.009L661.599,389.243L661.586,389.478L661.571,389.714L661.555,389.947L661.537,390.182L661.517,390.414L661.496,390.646L661.474,390.878L661.45,391.108L661.424,391.339L661.397,391.568L661.369,391.796L661.339,392.024L661.308,392.252L661.275,392.478L661.24,392.703L661.204,392.929L661.167,393.153L661.128,393.375L661.088,393.599L661.046,393.822L661.004,394.04L660.959,394.262L660.913,394.482L660.866,394.699L660.817,394.918L660.767,395.134L660.716,395.35L660.662,395.567L660.608,395.782L660.553,395.994L660.496,396.206L660.438,396.418L660.431,396.443L660.416,396.51L660.378,396.679L660.338,396.849L660.298,397.014L660.255,397.18L660.211,397.35L660.165,397.519L660.118,397.684L660.07,397.849L660.021,398.01L659.97,398.175L659.917,398.339L659.863,398.5L659.807,398.663L659.751,398.823L659.693,398.983L659.634,399.142L659.565,399.32L659.449,399.612L659.319,399.919L659.184,400.224L659.045,400.522L658.903,400.813L658.757,401.101L658.606,401.385L658.573,401.444L658.501,401.597L658.412,401.782L658.321,401.968L658.231,402.151L658.139,402.334L658.046,402.515L657.953,402.696L657.857,402.877L657.762,403.055L657.666,403.233L657.568,403.41L657.471,403.584L657.373,403.758L657.272,403.933L657.172,404.105L657.072,404.275L656.97,404.447L656.867,404.617L656.764,404.785L656.66,404.951L656.556,405.117L656.501,405.204L656.463,405.302L656.34,405.598L656.203,405.902L656.05,406.213L655.885,406.528L655.845,406.597L655.737,406.854L655.635,407.088L655.527,407.32L655.413,407.548L655.292,407.773L655.166,407.995L655.034,408.213L654.895,408.428L654.891,408.434L654.733,408.666L654.567,408.893L654.395,409.115L654.217,409.332L654.032,409.544L653.841,409.75L653.644,409.95L653.441,410.144L653.232,410.332L653.018,410.514L652.945,410.573L652.908,410.622L652.678,410.908L652.426,411.202L652.142,411.509L651.922,411.73L651.788,411.861L651.74,411.909L651.688,411.961L651.635,412.017L651.579,412.076L651.519,412.14L651.456,412.209L651.391,412.282L651.321,412.361L651.254,412.437L651.084,412.633L650.906,412.841L650.709,413.073L650.49,413.33L650.256,413.602L650.118,413.759L649.981,413.914L649.836,414.076L649.683,414.245L649.521,414.419L649.352,414.598L649.174,414.783L648.987,414.972L648.791,415.165L648.584,415.363L648.368,415.563L648.141,415.767L647.904,415.973L647.655,416.18L647.415,416.373L647.263,416.491L647.127,416.595L646.987,416.699L646.845,416.803L646.701,416.906L646.555,417.007L646.405,417.109L646.252,417.211L646.098,417.31L645.939,417.41L645.779,417.509L645.615,417.606L645.453,417.7L645.285,417.796L645.114,417.889L644.944,417.979L644.769,418.07L644.592,418.158L644.416,418.243L644.237,418.328L644.055,418.41L643.872,418.49L643.686,418.569L643.501,418.645L643.314,418.718L643.125,418.79L642.933,418.86L642.741,418.927L642.551,418.99L642.355,419.053L642.16,419.113L641.968,419.17L641.771,419.225L641.575,419.278L641.377,419.328L641.18,419.376L640.982,419.421L640.784,419.464L640.585,419.504L640.385,419.543L640.187,419.579L639.987,419.612L639.789,419.643L639.589,419.672L639.388,419.699L639.188,419.724L638.99,419.746L638.79,419.766L638.589,419.785L638.391,419.801L638.191,419.815L637.991,419.827L637.792,419.837L637.593,419.845L637.394,419.851L637.194,419.856L636.994,419.859L636.735,419.86L636.391,419.854L636.012,419.834L635.56,419.793L634.911,419.699L634.519,419.609L634.244,419.542L633.972,419.467L633.702,419.383L633.435,419.292L633.17,419.193L633.16,419.189L632.916,419.089L632.674,418.983L632.436,418.87L632.201,418.75L631.969,418.624L631.741,418.491L631.517,418.352L631.513,418.35L631.29,418.203L631.071,418.05L630.856,417.891L630.646,417.726L630.441,417.554L630.241,417.378L630.045,417.195L629.855,417.008L629.853,417.005L629.662,416.806L629.477,416.601L629.298,416.39L629.125,416.175L628.959,415.954L628.799,415.729L628.645,415.499L628.499,415.265L628.359,415.027L628.226,414.785L628.225,414.782L628.099,414.537L627.981,414.287L627.87,414.035L627.766,413.779L627.67,413.52L627.581,413.259L627.5,412.995L627.427,412.729L627.361,412.461L627.303,412.191L627.254,411.919L627.212,411.646L627.177,411.372L627.177,411.37L627.15,411.081L627.132,410.791L627.122,410.502L627.121,410.211L627.13,409.921L627.147,409.632L627.173,409.343L627.207,409.055L627.251,408.768L627.303,408.483L627.364,408.199L627.433,407.917L627.434,407.915L627.511,407.639L627.596,407.366L627.69,407.095L627.791,406.828L627.901,406.563L628.019,406.302L628.144,406.045L628.277,405.791L628.417,405.542L628.565,405.297L628.567,405.294L628.719,405.06L628.877,404.829L629.042,404.604L629.214,404.383L629.392,404.168L629.577,403.958L629.767,403.753L629.964,403.554L629.97,403.548L630.158,403.368L630.352,403.193L630.55,403.024L630.752,402.859L630.959,402.701L631.17,402.548L631.386,402.402L631.396,402.395L631.588,402.271L631.784,402.151L631.982,402.037L632.183,401.927L632.456,401.781L632.986,401.541L633.464,401.355L633.815,401.236L634.058,401.159L634.113,401.143L634.336,400.962L634.574,400.773L634.805,400.592L635.031,400.417L635.25,400.249L635.468,400.084L635.869,399.783L636.253,399.495L636.616,399.222L636.778,399.099L636.935,398.978L637.085,398.862L637.227,398.75L637.358,398.646L637.478,398.549L637.589,398.457L637.7,398.363L637.734,398.334L637.755,398.316L637.855,397.973L638.017,397.505L638.234,396.971L638.482,396.456L638.484,396.443L638.541,396.153L638.607,395.865L638.681,395.579L638.765,395.295L638.857,395.015L638.958,394.737L639.068,394.463L639.186,394.192L639.313,393.925L639.447,393.662L639.59,393.404L639.741,393.149L639.9,392.9L640.066,392.656L640.24,392.417L640.421,392.184L640.609,391.956L640.804,391.735L641.007,391.519L641.215,391.31L641.43,391.107L641.652,390.912L641.879,390.723L641.972,390.65L641.982,390.53L642.015,390.236L642.057,389.944L642.108,389.653L642.168,389.363L642.238,389.076L642.316,388.791L642.403,388.509L642.498,388.229L642.602,387.953L642.641,387.86L642.643,387.795L642.645,387.682L642.647,387.57L642.648,387.455L642.649,387.307L642.654,387.012L642.669,386.717L642.693,386.422L642.726,386.129L642.768,385.836L642.82,385.545L642.88,385.256L642.949,384.969L643.027,384.684L643.114,384.401L643.21,384.122L643.314,383.845L643.427,383.572L643.548,383.303L643.678,383.037L643.816,382.776L643.962,382.519L644.116,382.267L644.277,382.019L644.446,381.777L644.623,381.54L644.807,381.309L644.998,381.083L645.196,380.864L645.401,380.651L645.612,380.444L645.83,380.244L646.053,380.051L646.283,379.865L646.518,379.686L646.759,379.515L647.005,379.351L647.255,379.195L647.511,379.047L647.771,378.907L648.036,378.775L648.304,378.651L648.576,378.535L648.851,378.429L649.13,378.33L649.412,378.241L649.696,378.16L649.982,378.088L650.271,378.025L650.562,377.971L650.854,377.927L651.147,377.891L651.441,377.864L651.736,377.847L652.032,377.839L652.327,377.84ZM654.239,408.785L654.247,408.777L654.26,408.762L654.239,408.785Z" style="fill:rgb(187,67,255);"/>
        <path d="M649.323,378.935L649.76,378.958L650.194,379.001L650.626,379.064L651.055,379.146L651.48,379.248L651.899,379.37L652.313,379.511L652.719,379.67L652.72,379.671L653.096,379.838L653.464,380.021L653.823,380.22L654.174,380.434L654.515,380.663L654.846,380.907L655.166,381.165L655.474,381.436L655.771,381.721L656.055,382.018L656.325,382.327L656.583,382.647L656.826,382.979L657.054,383.32L657.055,383.322L657.265,383.666L657.459,384.018L657.639,384.379L657.803,384.746L657.951,385.12L658.084,385.501L658.2,385.886L658.202,385.894L658.302,386.286L658.386,386.682L658.452,387.082L658.506,387.452L658.546,388.046L658.556,388.403L658.557,388.66L658.556,388.875L658.551,389.091L658.543,389.3L658.533,389.506L658.52,389.71L658.505,389.906L658.488,390.098L658.469,390.29L658.449,390.476L658.427,390.658L658.403,390.841L658.378,391.019L658.352,391.194L658.324,391.37L658.295,391.542L658.294,391.549L658.285,391.649L658.253,392.015L658.218,392.381L658.182,392.733L658.16,392.936L658.098,393.455L656.934,399.269L656.818,399.722L656.751,399.978L656.681,400.235L656.609,400.49L656.536,400.746L656.46,401.002L656.382,401.257L656.301,401.514L656.219,401.77L656.135,402.026L656.048,402.283L655.96,402.539L655.869,402.796L655.777,403.053L655.682,403.309L655.586,403.566L655.487,403.824L655.386,404.081L655.283,404.338L655.178,404.595L655.071,404.853L654.962,405.111L654.851,405.368L654.737,405.625L654.622,405.882L654.504,406.139L654.384,406.396L654.261,406.652L654.137,406.909L654.01,407.165L653.88,407.42L653.748,407.676L653.614,407.932L653.477,408.187L653.337,408.441L653.195,408.695L653.049,408.95L652.901,409.204L652.749,409.457L652.594,409.71L652.436,409.963L652.275,410.216L652.109,410.468L651.939,410.72L651.766,410.972L651.588,411.223L651.405,411.475L651.216,411.727L651.023,411.978L650.824,412.229L650.619,412.48L650.407,412.731L650.199,412.968L650.074,413.108L649.961,413.233L649.842,413.36L649.724,413.485L649.604,413.61L649.48,413.736L649.354,413.862L649.224,413.988L649.095,414.112L648.96,414.239L648.822,414.364L648.685,414.487L648.54,414.614L648.392,414.74L648.243,414.863L648.089,414.989L647.933,415.112L647.772,415.235L647.607,415.359L647.438,415.481L647.264,415.603L647.119,415.702L646.507,416.112L645.89,416.526L645.24,416.966L644.91,417.19L644.573,417.421L644.231,417.656L643.886,417.895L643.538,418.137L643.188,418.382L642.838,418.63L642.487,418.879L642.138,419.13L641.79,419.382L641.446,419.634L641.107,419.885L640.771,420.136L640.436,420.391L640.28,420.51L640.12,420.633L639.962,420.756L639.807,420.878L639.654,420.998L639.503,421.118L639.354,421.237L639.21,421.354L639.067,421.47L638.929,421.584L638.794,421.697L638.661,421.808L638.533,421.917L638.408,422.024L638.288,422.128L638.172,422.23L638.06,422.33L637.953,422.426L637.851,422.52L637.754,422.61L637.662,422.696L637.576,422.778L637.496,422.856L637.366,422.985L637.231,423.117L637.033,423.301L636.84,423.471L636.647,423.634L636.449,423.795L636.254,423.944L636.063,424.085L635.831,424.248L635.492,424.471L635.122,424.695L634.76,424.896L634.41,425.074L634.074,425.232L633.746,425.375L633.433,425.5L633.136,425.61L632.848,425.709L632.574,425.796L632.311,425.874L632.061,425.943L631.823,426.004L631.596,426.058L631.379,426.106L631.172,426.149L630.976,426.187L630.789,426.222L630.611,426.253L630.426,426.283L630.138,426.327L630.071,426.336L629.913,426.433L629.742,426.534L629.571,426.632L629.399,426.727L629.229,426.819L629.058,426.908L628.889,426.992L628.726,427.072L628.561,427.15L628.395,427.226L628.233,427.298L628.073,427.367L627.889,427.443L627.6,427.558L627.295,427.672L626.995,427.778L626.704,427.874L626.42,427.962L626.143,428.044L625.875,428.118L625.614,428.187L625.361,428.25L625.116,428.308L624.878,428.361L624.648,428.41L624.425,428.456L624.209,428.498L624.001,428.537L623.799,428.574L623.596,428.609L623.242,428.669L622.903,428.724L622.592,428.774L622.308,428.819L622.051,428.861L621.809,428.902L621.715,428.919L621.618,428.936L621.529,428.953L621.446,428.969L621.37,428.984L621.302,428.999L621.241,429.013L621.188,429.025L621.142,429.036L621.104,429.046L621.074,429.054L621.073,429.054L621.022,429.079L620.841,429.167L620.659,429.254L620.478,429.338L620.296,429.421L620.114,429.503L619.934,429.582L619.751,429.66L619.568,429.738L619.385,429.813L619.204,429.886L619.022,429.959L618.839,430.03L618.659,430.099L618.477,430.166L618.294,430.233L618.112,430.299L617.931,430.363L617.748,430.425L617.567,430.487L617.385,430.547L617.203,430.606L617.021,430.664L616.84,430.72L616.659,430.776L616.476,430.83L616.294,430.883L616.101,430.939L615.752,431.036L615.389,431.133L615.027,431.225L614.666,431.314L614.305,431.399L613.945,431.48L613.584,431.558L613.224,431.632L612.865,431.703L612.505,431.771L612.147,431.835L611.789,431.897L611.431,431.956L611.075,432.012L610.718,432.065L610.362,432.116L610.007,432.164L609.652,432.21L609.297,432.253L608.944,432.294L608.591,432.333L608.239,432.37L607.888,432.404L607.537,432.437L607.187,432.467L606.838,432.496L606.49,432.523L606.142,432.548L605.796,432.572L605.45,432.594L605.106,432.614L604.762,432.633L604.419,432.65L604.078,432.666L603.737,432.681L603.398,432.694L603.06,432.706L602.723,432.717L602.388,432.726L602.054,432.735L601.721,432.743L601.39,432.749L601.06,432.755L600.726,432.76L600.08,432.766L599.436,432.77L598.815,432.771L598.383,432.762L597.951,432.734L597.522,432.685L597.094,432.618L596.671,432.53L596.252,432.424L595.838,432.299L595.43,432.155L595.029,431.992L594.636,431.812L594.252,431.613L593.877,431.398L593.512,431.165L593.158,430.917L592.816,430.652L592.486,430.372L592.17,430.078L591.867,429.769L591.578,429.447L591.304,429.112L591.046,428.765L590.804,428.406L590.579,428.037L590.371,427.658L590.18,427.27L590.007,426.874L589.852,426.47L589.716,426.059L589.598,425.643L589.5,425.222L589.42,424.797L589.361,424.368L589.321,423.938L589.3,423.506L589.299,423.073L589.318,422.641L589.357,422.21L589.415,421.782L589.492,421.356L589.589,420.935L589.705,420.518L589.84,420.107L589.993,419.703L590.165,419.306L590.354,418.917L590.561,418.537L590.785,418.167L591.026,417.808L591.282,417.46L591.555,417.124L591.842,416.8L592.144,416.491L592.459,416.195L592.788,415.914L593.129,415.648L593.482,415.398L593.846,415.164L594.22,414.947L594.604,414.747L594.996,414.565L595.396,414.401L595.803,414.256L596.217,414.129L596.636,414.021L597.059,413.932L597.486,413.862L597.915,413.813L598.347,413.782L598.779,413.772L599.36,413.77L599.922,413.767L600.488,413.761L600.761,413.757L601.039,413.752L601.317,413.747L601.593,413.741L601.869,413.733L602.144,413.726L602.417,413.717L602.689,413.707L602.96,413.696L603.229,413.685L603.497,413.672L603.763,413.659L604.028,413.645L604.292,413.629L604.553,413.612L604.813,413.595L605.07,413.576L605.326,413.556L605.579,413.536L605.83,413.514L606.079,413.49L606.325,413.466L606.569,413.441L606.81,413.414L607.049,413.387L607.285,413.358L607.517,413.328L607.747,413.297L607.974,413.264L608.197,413.231L608.417,413.196L608.633,413.161L608.846,413.124L609.056,413.086L609.261,413.048L609.463,413.008L609.661,412.967L609.854,412.925L610.043,412.883L610.228,412.839L610.41,412.795L610.585,412.75L610.756,412.704L610.936,412.654L611.006,412.634L611.085,412.611L611.164,412.587L611.242,412.564L611.319,412.54L611.394,412.516L611.468,412.492L611.541,412.468L611.612,412.444L611.681,412.42L611.751,412.395L611.818,412.371L611.883,412.347L611.948,412.323L612.013,412.298L612.074,412.274L612.134,412.25L612.194,412.226L612.252,412.202L612.307,412.179L612.361,412.156L612.416,412.132L612.468,412.109L612.518,412.086L612.568,412.062L612.616,412.04L612.662,412.017L612.747,411.975L612.867,411.916L613.028,411.838L613.189,411.764L613.348,411.691L613.507,411.621L613.684,411.545L613.973,411.425L614.28,411.305L614.581,411.194L614.877,411.09L615.168,410.993L615.452,410.903L615.73,410.82L616.002,410.743L616.269,410.671L616.529,410.604L616.782,410.542L617.03,410.485L617.269,410.432L617.502,410.382L617.729,410.336L617.948,410.293L618.161,410.253L618.367,410.216L618.574,410.179L618.937,410.118L619.283,410.061L619.6,410.011L619.886,409.965L620.139,409.924L620.369,409.885L620.381,409.877L620.575,409.741L620.812,409.582L621.155,409.369L621.528,409.156L621.892,408.965L622.238,408.799L622.573,408.651L622.895,408.52L623.201,408.405L623.495,408.303L623.773,408.214L624.038,408.135L624.293,408.065L624.532,408.004L624.761,407.949L624.979,407.901L625.186,407.858L625.383,407.819L625.568,407.786L625.764,407.752L625.888,407.732L625.993,407.641L626.198,407.465L626.403,407.291L626.609,407.118L626.817,406.945L627.025,406.774L627.233,406.604L627.442,406.435L627.651,406.268L627.861,406.101L628.072,405.935L628.282,405.77L628.493,405.606L628.704,405.443L628.922,405.277L629.338,404.961L629.592,404.771L629.724,404.453L629.908,404.061L630.109,403.678L630.328,403.305L630.563,402.942L630.815,402.59L631.082,402.251L631.365,401.923L631.662,401.609L631.973,401.308L632.297,401.022L632.635,400.752L632.916,400.546L632.936,400.518L633.047,400.374L633.155,400.236L633.269,400.092L633.393,399.941L633.523,399.785L633.661,399.624L633.808,399.457L633.967,399.282L634.134,399.104L634.311,398.922L634.502,398.732L634.555,398.682L634.594,398.576L634.664,398.394L634.739,398.205L634.821,398.007L634.912,397.795L635.011,397.575L635.122,397.343L635.244,397.098L635.378,396.844L635.524,396.582L635.687,396.307L635.868,396.019L636.065,395.726L636.281,395.424L636.522,395.111L636.783,394.795L637.033,394.514L637.054,394.482L637.096,394.414L637.143,394.336L637.196,394.247L637.252,394.149L637.312,394.044L637.375,393.93L637.441,393.81L637.509,393.683L637.579,393.55L637.65,393.411L637.723,393.267L637.796,393.119L637.871,392.966L637.946,392.809L638.021,392.649L638.096,392.487L638.171,392.322L638.247,392.154L638.321,391.984L638.395,391.814L638.467,391.642L638.539,391.47L638.61,391.297L638.679,391.125L638.747,390.953L638.813,390.782L638.877,390.612L638.94,390.443L639,390.278L639.057,390.115L639.113,389.954L639.166,389.798L639.216,389.645L639.263,389.496L639.307,389.353L639.348,389.215L639.386,389.084L639.421,388.96L639.452,388.843L639.456,388.83L639.468,388.678L639.496,388.354L639.524,388.04L639.553,387.743L639.573,387.554L639.599,387.336L639.645,387.003L639.741,386.469L639.82,386.151L639.913,385.805L640.019,385.463L640.137,385.126L640.14,385.118L640.28,384.764L640.434,384.415L640.602,384.073L640.784,383.739L640.979,383.411L641.187,383.092L641.188,383.09L641.437,382.741L641.702,382.404L641.981,382.079L642.275,381.766L642.582,381.468L642.903,381.184L643.236,380.914L643.581,380.66L643.937,380.421L644.304,380.199L644.305,380.198L644.689,379.989L645.081,379.798L645.482,379.625L645.891,379.47L646.306,379.335L646.727,379.218L647.153,379.122L647.582,379.044L648.015,378.987L648.45,378.95L648.887,378.932L649.323,378.935ZM637.37,396.632L637.357,396.639L637.406,396.613L637.37,396.632Z" style="fill:rgb(187,67,255);"/>
        <path d="M633.193,350.805L633.317,350.807L633.54,350.813L633.911,350.836L634.221,350.865L634.49,350.898L634.728,350.932L634.941,350.966L635.135,351.001L635.343,351.041L635.645,351.105L635.952,351.176L636.243,351.249L636.524,351.324L636.8,351.402L637.073,351.482L637.346,351.566L637.619,351.653L637.894,351.745L638.171,351.84L638.45,351.94L638.734,352.045L639.022,352.157L639.315,352.274L639.598,352.393L639.767,352.466L639.923,352.535L640.083,352.608L640.245,352.683L640.411,352.762L640.581,352.846L640.758,352.936L640.94,353.031L641.131,353.135L641.329,353.246L641.536,353.367L641.756,353.501L641.99,353.651L642.243,353.822L642.513,354.015L642.805,354.238L643.124,354.5L643.475,354.812L643.858,355.187L644.278,355.647L644.68,356.149L644.968,356.559L645.208,356.931L645.462,357.372L645.706,357.852L645.939,358.383L646.16,358.987L646.351,359.648L646.506,360.377L646.608,361.171L646.626,361.587L646.631,361.711L646.634,361.835L646.635,361.959L646.635,362.083L646.633,362.206L646.629,362.33L646.624,362.454L646.618,362.578L646.609,362.701L646.599,362.825L646.588,362.948L646.575,363.071L646.56,363.194L646.543,363.317L646.525,363.439L646.506,363.562L646.485,363.684L646.462,363.805L646.438,363.927L646.412,364.048L646.384,364.169L646.355,364.289L646.325,364.409L646.292,364.528L646.259,364.648L646.223,364.766L646.187,364.885L646.148,365.002L646.108,365.12L646.067,365.236L646.024,365.352L645.98,365.468L645.934,365.583L645.886,365.697L645.837,365.811L645.787,365.924L645.735,366.037L645.681,366.148L645.627,366.259L645.57,366.37L645.513,366.479L645.454,366.588L645.393,366.696L645.331,366.804L645.268,366.91L645.203,367.016L645.137,367.12L645.07,367.224L645.001,367.327L644.931,367.429L644.859,367.53L644.787,367.631L644.713,367.73L644.637,367.828L644.561,367.925L644.483,368.022L644.404,368.117L644.323,368.211L644.242,368.304L644.159,368.397L644.075,368.488L643.99,368.577L643.904,368.666L643.816,368.754L643.727,368.84L643.638,368.926L643.547,369.01L643.455,369.093L643.362,369.175L643.268,369.255L643.173,369.335L643.077,369.413L642.98,369.489L642.881,369.565L642.782,369.639L642.682,369.712L642.581,369.784L642.479,369.854L642.377,369.923L642.273,369.991L642.168,370.057L642.063,370.122L641.956,370.186L641.849,370.248L641.741,370.309L641.633,370.368L641.523,370.426L641.413,370.482L641.302,370.537L641.19,370.591L641.078,370.643L640.965,370.694L640.852,370.743L640.737,370.791L640.622,370.837L640.507,370.882L640.391,370.925L640.274,370.966L640.157,371.007L640.039,371.045L639.921,371.082L639.803,371.118L639.683,371.152L639.564,371.184L639.444,371.215L639.324,371.244L639.203,371.272L639.082,371.298L638.961,371.323L638.839,371.346L638.717,371.367L638.595,371.387L638.472,371.405L638.35,371.422L638.227,371.437L638.104,371.451L637.98,371.462L637.857,371.473L637.733,371.481L637.61,371.488L637.486,371.494L637.362,371.497L637.238,371.499L637.114,371.5L636.991,371.499L636.867,371.496L636.743,371.492L636.619,371.486L636.496,371.478L636.372,371.469L636.249,371.459L636.126,371.446L636.003,371.432L635.88,371.417L635.757,371.4L635.635,371.381L635.513,371.36L635.391,371.338L635.269,371.315L635.148,371.29L635.027,371.263L634.906,371.235L634.786,371.205L634.666,371.174L634.547,371.141L634.428,371.106L634.31,371.07L634.192,371.032L634.074,370.993L633.957,370.953L633.841,370.91L633.725,370.867L633.61,370.822L633.495,370.775L633.381,370.727L633.267,370.677L633.155,370.626L633.042,370.573L632.931,370.519L632.82,370.464L632.71,370.407L632.601,370.348L632.493,370.288L632.385,370.227L632.278,370.165L632.172,370.101L632.067,370.035L631.963,369.968L631.859,369.9L631.757,369.831L631.655,369.76L631.555,369.688L631.539,369.677L631.512,369.672L631.39,369.651L631.269,369.628L631.147,369.603L631.026,369.577L630.905,369.55L630.785,369.52L630.665,369.489L630.546,369.457L630.427,369.423L630.308,369.388L630.19,369.35L630.072,369.312L629.955,369.272L629.838,369.23L629.722,369.187L629.607,369.142L629.492,369.096L629.378,369.048L629.264,368.999L629.151,368.949L629.039,368.896L628.927,368.843L628.816,368.788L628.706,368.731L628.596,368.673L628.488,368.614L628.38,368.553L628.272,368.491L628.166,368.428L628.061,368.363L627.956,368.297L627.852,368.229L627.75,368.16L627.648,368.09L627.547,368.018L627.446,367.945L627.347,367.871L627.249,367.795L627.152,367.719L627.056,367.64L626.961,367.561L626.867,367.481L626.774,367.399L626.682,367.316L626.591,367.232L626.501,367.146L626.413,367.06L626.325,366.972L626.239,366.883L626.154,366.794L626.07,366.703L625.987,366.611L625.905,366.517L625.825,366.423L625.746,366.328L625.668,366.232L625.591,366.134L625.516,366.036L625.442,365.937L625.369,365.837L625.298,365.735L625.227,365.633L625.159,365.53L625.091,365.427L625.025,365.322L624.96,365.216L624.897,365.11L624.835,365.003L624.775,364.895L624.715,364.786L624.658,364.676L624.601,364.566L624.547,364.455L624.493,364.343L624.441,364.231L624.391,364.118L624.342,364.004L624.294,363.889L624.248,363.774L624.204,363.659L624.161,363.543L624.12,363.426L624.08,363.309L624.041,363.191L624.004,363.073L623.969,362.954L623.935,362.835L623.903,362.715L623.872,362.595L623.843,362.475L623.816,362.354L623.79,362.233L623.766,362.112L623.743,361.99L623.722,361.868L623.702,361.746L623.684,361.623L623.668,361.5L623.653,361.378L623.64,361.254L623.628,361.131L623.618,361.008L623.61,360.884L623.603,360.76L623.598,360.637L623.594,360.513L623.593,360.389L623.592,360.265L623.594,360.141L623.597,360.018L623.601,359.894L623.607,359.77L623.615,359.647L623.624,359.523L623.635,359.4L623.648,359.277L623.662,359.154L623.678,359.031L623.695,358.908L623.714,358.786L623.735,358.664L623.757,358.542L623.781,358.42L623.806,358.299L623.833,358.178L623.862,358.058L623.892,357.938L623.923,357.818L623.957,357.699L623.991,357.58L624.028,357.461L624.066,357.343L624.105,357.226L624.146,357.109L624.188,356.993L624.232,356.877L624.278,356.762L624.324,356.647L624.373,356.533L624.423,356.42L624.474,356.307L624.527,356.195L624.581,356.084L624.637,355.973L624.694,355.863L624.753,355.754L624.813,355.646L624.874,355.538L624.937,355.432L625.001,355.326L625.067,355.221L625.134,355.117L625.202,355.013L625.272,354.911L625.343,354.809L625.415,354.709L625.489,354.609L625.564,354.511L625.64,354.413L625.717,354.316L625.796,354.221L625.876,354.126L625.957,354.033L626.039,353.94L626.123,353.849L626.208,353.758L626.294,353.669L626.381,353.581L626.469,353.494L626.558,353.409L626.649,353.324L626.74,353.241L626.833,353.158L626.926,353.077L627.021,352.998L627.117,352.919L627.214,352.842L627.312,352.766L627.41,352.691L627.51,352.618L627.611,352.546L627.712,352.475L627.815,352.405L627.918,352.337L628.023,352.27L628.128,352.205L628.234,352.141L628.341,352.078L628.448,352.017L628.557,351.957L628.666,351.899L628.776,351.842L628.886,351.786L628.998,351.732L629.11,351.68L629.223,351.628L629.336,351.579L629.45,351.531L629.565,351.484L629.68,351.439L629.796,351.395L629.912,351.353L630.029,351.312L630.147,351.273L630.265,351.235L630.383,351.199L630.502,351.165L630.622,351.132L630.741,351.1L630.862,351.07L630.982,351.042L631.103,351.015L631.224,350.99L631.346,350.967L631.468,350.945L631.59,350.924L631.712,350.905L631.835,350.888L631.958,350.873L632.081,350.859L632.204,350.846L632.327,350.836L632.451,350.826L632.575,350.819L632.698,350.813L632.822,350.809L632.946,350.806L633.07,350.805L633.193,350.805ZM632.713,369.798L632.867,369.802L632.743,369.798L632.643,369.794L632.713,369.798ZM627.908,364.268L627.92,364.308L627.905,364.249L627.897,364.214L627.908,364.268ZM627.76,363.566L627.793,363.726L627.778,363.643L627.758,363.521L627.739,363.398L627.732,363.349L627.76,363.566ZM627.661,362.801L627.697,363.077L627.691,363.03L627.679,362.907L627.667,362.783L627.658,362.66L627.65,362.536L627.644,362.413L627.661,362.801Z" style="fill:rgb(187,67,255);"/>
        <g transform="matrix(1.42384,0,0,0.772547,-248.293,89.5949)">
            <text x="558px" y="386.975px" style="font-family:'AquaGrotesque', 'Aqua Grotesque';font-size:69.767px;fill:rgb(254,123,23);">T</text>
        </g>
        <path d="M604.044,413.496L604.31,413.502L604.512,413.509L604.973,413.534L605.432,413.582L605.888,413.653L606.34,413.745L606.788,413.86L607.229,413.995L607.341,414.036L607.435,414.032L607.526,414.027L607.623,414.021L607.716,414.015L607.807,414.009L607.895,414.003L607.979,413.996L608.058,413.989L608.134,413.982L608.207,413.975L608.279,413.967L608.345,413.959L608.408,413.952L608.47,413.944L608.528,413.936L608.583,413.928L608.637,413.92L608.686,413.912L608.734,413.903L608.781,413.895L608.824,413.887L608.865,413.879L608.905,413.871L608.944,413.862L608.979,413.854L609.015,413.846L609.052,413.837L609.084,413.829L609.115,413.82L609.149,413.811L609.182,413.801L609.214,413.792L609.246,413.782L609.276,413.772L609.309,413.762L609.343,413.75L609.377,413.738L609.411,413.726L609.446,413.713L609.483,413.699L609.521,413.684L609.562,413.667L609.601,413.651L609.644,413.633L609.69,413.613L609.737,413.592L609.785,413.57L609.837,413.546L609.889,413.521L609.945,413.494L610.075,413.43L610.283,413.329L610.563,413.202L610.837,413.086L611.111,412.977L611.381,412.877L611.644,412.786L611.904,412.703L612.155,412.628L612.403,412.56L612.643,412.499L612.871,412.445L613.096,412.396L613.314,412.352L613.521,412.314L613.718,412.281L613.91,412.251L614.094,412.225L614.245,412.205L614.429,412.116L614.66,412.012L614.925,411.898L615.304,411.75L615.708,411.61L616.089,411.493L616.449,411.396L616.789,411.314L617.109,411.247L617.408,411.192L617.692,411.146L617.961,411.108L618.213,411.078L618.449,411.054L618.675,411.034L618.888,411.018L619.088,411.006L619.278,410.996L619.387,410.992L619.433,410.964L619.597,410.869L619.756,410.778L619.91,410.693L620.075,410.603L620.343,410.46L620.611,410.322L620.862,410.196L621.096,410.081L621.31,409.977L621.504,409.883L621.846,409.718L621.982,409.652L622.101,409.594L622.166,409.561L622.239,409.499L622.575,409.243L622.912,408.996L623.583,408.588L624.224,408.263L624.832,408.006L625.413,407.805L625.951,407.653L626.45,407.542L626.894,407.465L627.292,407.413L627.437,407.4L627.534,407.365L627.809,407.271L628.08,407.183L628.324,407.108L628.539,407.044L628.617,407.021L629.022,406.795L629.553,406.539L630.051,406.331L630.51,406.166L630.938,406.033L631.343,405.925L631.71,405.842L632.046,405.777L632.364,405.725L632.653,405.686L632.8,405.67L632.897,405.609L633.151,405.456L633.382,405.321L633.59,405.203L633.781,405.097L634.018,404.967L634.277,404.702L635.102,403.86L635.514,403.439L635.925,403.016L636.122,402.813L636.319,402.607L636.513,402.404L636.703,402.203L636.89,402.005L637.071,401.81L637.246,401.619L637.415,401.433L637.577,401.252L637.732,401.077L637.879,400.909L638.016,400.748L638.152,400.587L638.204,400.524L638.261,400.454L638.315,400.386L638.367,400.321L638.415,400.261L638.459,400.205L638.5,400.151L638.538,400.1L638.572,400.054L638.602,400.013L638.629,399.975L638.652,399.943L638.67,399.917L638.685,399.894L638.686,399.893L638.69,399.886L638.692,399.884L638.693,399.883L638.695,399.88L638.695,399.879L638.697,399.875L638.698,399.873L638.699,399.872L638.701,399.869L638.702,399.867L638.703,399.864L638.705,399.861L638.705,399.86L638.706,399.859L638.706,399.859L638.714,399.838L638.719,399.827L638.725,399.812L638.731,399.794L638.738,399.773L638.747,399.747L638.756,399.717L638.766,399.683L638.777,399.644L638.789,399.598L638.802,399.548L638.816,399.492L638.83,399.43L638.845,399.363L638.86,399.289L638.876,399.209L638.893,399.123L638.91,399.029L638.928,398.928L638.946,398.822L638.965,398.71L638.982,398.598L639.024,398.325L639.066,398.039L639.16,397.381L639.212,397.015L639.271,396.622L639.334,396.216L639.371,395.988L639.409,395.763L639.449,395.533L639.491,395.298L639.536,395.056L639.584,394.808L639.635,394.555L639.69,394.298L639.748,394.034L639.81,393.767L639.875,393.495L639.945,393.217L640.019,392.936L640.097,392.651L640.18,392.361L640.268,392.069L640.361,391.773L640.461,391.465L640.532,391.26L640.604,391.058L640.676,390.866L640.749,390.678L640.821,390.496L640.892,390.326L640.962,390.161L641.04,389.982L641.169,389.696L641.303,389.408L641.434,389.137L641.561,388.88L641.684,388.636L641.803,388.404L641.917,388.186L642.026,387.977L642.222,387.605L642.4,387.266L642.473,387.127L642.52,387.035L642.589,386.752L642.72,386.312L642.872,385.879L643.045,385.453L643.238,385.037L643.451,384.63L643.683,384.234L643.934,383.85L644.204,383.478L644.491,383.12L644.795,382.776L645.115,382.447L645.451,382.134L645.802,381.837L646.166,381.558L646.544,381.297L646.934,381.054L647.335,380.831L647.746,380.627L648.167,380.443L648.596,380.28L649.033,380.138L649.475,380.017L649.924,379.917L650.376,379.839L650.832,379.784L651.29,379.75L651.749,379.738L652.208,379.749L652.666,379.782L653.121,379.837L653.574,379.913L654.022,380.012L654.465,380.132L654.902,380.274L655.332,380.436L655.753,380.619L656.165,380.822L656.566,381.045L656.956,381.287L657.334,381.547L657.699,381.825L658.051,382.121L658.387,382.433L658.708,382.762L659.013,383.105L659.301,383.463L659.571,383.834L659.823,384.218L660.056,384.613L660.27,385.019L660.464,385.436L660.637,385.861L660.79,386.293L660.922,386.733L661.032,387.179L661.121,387.629L661.188,388.084L661.233,388.541L661.255,388.999L661.256,389.458L661.25,389.72L661.219,390.173L661.175,390.583L661.121,390.961L661.059,391.311L660.993,391.632L660.922,391.935L660.851,392.211L660.777,392.472L660.702,392.716L660.628,392.943L660.553,393.162L660.478,393.368L660.405,393.562L660.333,393.745L660.261,393.924L660.189,394.095L660.118,394.259L660.049,394.416L659.975,394.58L659.849,394.85L659.719,395.122L659.593,395.375L659.472,395.616L659.355,395.844L659.24,396.065L659.036,396.454L658.845,396.816L658.762,396.974L658.686,397.121L658.617,397.254L658.558,397.372L658.508,397.473L658.468,397.557L658.443,397.609L658.435,397.636L658.412,397.712L658.39,397.79L658.367,397.87L658.346,397.953L658.325,398.037L658.303,398.125L658.282,398.217L658.261,398.31L658.241,398.408L658.22,398.51L658.2,398.614L658.179,398.724L658.159,398.838L658.138,398.956L658.118,399.078L658.099,399.195L658.055,399.476L658.012,399.765L657.968,400.076L657.871,400.757L657.815,401.135L657.756,401.522L657.722,401.738L657.686,401.953L657.649,402.174L657.609,402.399L657.567,402.63L657.521,402.868L657.472,403.112L657.42,403.361L657.364,403.615L657.304,403.874L657.239,404.139L657.171,404.409L657.097,404.684L657.018,404.964L656.934,405.248L656.844,405.536L656.748,405.828L656.646,406.124L656.538,406.423L656.423,406.724L656.302,407.029L656.182,407.316L656.106,407.489L656.037,407.645L655.968,407.797L655.895,407.954L655.82,408.111L655.745,408.265L655.668,408.419L655.588,408.577L655.507,408.733L655.425,408.886L655.34,409.042L655.251,409.201L655.163,409.355L655.074,409.509L654.981,409.665L654.887,409.819L654.791,409.975L654.693,410.13L654.595,410.281L654.492,410.437L654.37,410.618L654.246,410.798L654.123,410.974L654,411.145L653.876,411.315L653.752,411.482L653.628,411.646L653.505,411.807L653.38,411.968L653.255,412.126L653.132,412.281L653.008,412.434L652.884,412.586L652.752,412.746L652.511,413.033L652.262,413.324L652.013,413.61L651.764,413.891L651.515,414.169L651.267,414.441L651.02,414.711L650.773,414.975L650.529,415.236L650.286,415.492L650.045,415.745L649.807,415.992L649.569,416.239L649.115,416.707L648.674,417.157L647.86,417.986L647.496,418.36L647.333,418.528L647.135,418.734L646.984,418.888L646.79,419.078L646.597,419.259L646.409,419.428L646.223,419.59L646.04,419.743L645.859,419.89L645.68,420.029L645.509,420.158L645.341,420.282L645.175,420.4L645.019,420.508L644.865,420.612L644.694,420.724L644.434,420.889L644.173,421.049L643.934,421.19L643.718,421.314L643.517,421.427L643.381,421.501L643.38,421.503L643.082,421.799L642.719,422.131L642.194,422.557L641.599,422.971L641.02,423.317L640.473,423.597L639.963,423.823L639.48,424.008L639.033,424.155L638.621,424.271L638.238,424.364L637.884,424.437L637.562,424.493L637.262,424.536L636.983,424.57L636.724,424.594L636.488,424.612L636.268,424.625L636.06,424.634L635.899,424.638L635.877,424.647L635.704,424.711L635.519,424.778L635.244,424.872L634.976,424.958L634.736,425.032L634.522,425.095L634.512,425.098L633.847,425.463L633.215,425.75L632.615,425.975L632.062,426.144L631.56,426.267L631.095,426.357L631.033,426.366L630.82,426.476L630.571,426.601L630.339,426.716L630.122,426.822L629.752,426.999L629.59,427.078L629.45,427.146L629.331,427.204L629.31,427.215L629.206,427.307L628.942,427.524L628.682,427.724L628.424,427.911L628.166,428.085L627.916,428.245L627.662,428.397L627.418,428.534L627.178,428.661L626.941,428.779L626.709,428.888L626.433,429.009L626.052,429.163L625.64,429.309L625.253,429.431L624.885,429.534L624.541,429.619L624.216,429.689L623.909,429.747L623.624,429.794L623.352,429.833L623.097,429.865L622.856,429.891L622.629,429.911L622.413,429.928L622.212,429.941L622.02,429.951L621.838,429.958L621.653,429.964L621.506,429.968L621.444,429.996L621.138,430.127L620.838,430.244L620.543,430.351L620.257,430.446L619.982,430.53L619.714,430.604L619.459,430.67L619.211,430.727L618.978,430.777L618.756,430.82L618.545,430.857L618.345,430.889L618.153,430.917L617.976,430.941L617.788,430.963L617.514,430.992L617.333,431.008L617.151,431.087L616.953,431.171L616.752,431.254L616.553,431.335L616.352,431.414L616.15,431.491L615.947,431.567L615.742,431.641L615.538,431.712L615.333,431.782L615.127,431.849L614.919,431.916L614.712,431.979L614.504,432.041L614.296,432.101L614.089,432.158L613.878,432.214L613.668,432.268L613.461,432.318L613.253,432.368L613.042,432.415L612.833,432.46L612.625,432.503L612.417,432.544L612.208,432.584L612.003,432.62L611.796,432.655L611.589,432.689L611.384,432.72L611.179,432.75L610.975,432.778L610.771,432.804L610.568,432.829L610.365,432.852L610.165,432.874L609.964,432.894L609.762,432.913L609.562,432.93L609.362,432.946L609.165,432.961L608.967,432.974L608.768,432.987L608.57,432.998L608.362,433.009L607.981,433.026L607.588,433.041L607.194,433.052L606.8,433.06L606.405,433.065L606.007,433.068L605.842,433.068L605.739,433.076L605.48,433.098L605.149,433.125L604.775,433.155L604.56,433.172L604.34,433.187L604.111,433.203L603.872,433.217L603.623,433.23L603.365,433.242L603.095,433.252L602.811,433.259L602.515,433.263L602.221,433.262L602.035,433.259L601.864,433.255L601.683,433.248L601.495,433.239L601.295,433.227L601.084,433.211L600.86,433.19L600.618,433.164L600.361,433.13L600.079,433.087L599.763,433.031L599.423,432.959L599.04,432.866L598.881,432.82L598.639,432.86L598.379,432.901L598.107,432.941L597.823,432.981L597.528,433.019L597.222,433.055L596.904,433.089L596.591,433.118L596.407,433.133L596.234,433.146L596.059,433.157L595.882,433.168L595.699,433.177L595.516,433.185L595.331,433.191L595.14,433.196L594.948,433.198L594.803,433.199L594.344,433.19L593.886,433.16L593.43,433.107L592.977,433.032L592.528,432.935L592.084,432.817L591.647,432.677L591.217,432.517L590.795,432.335L590.382,432.134L589.98,431.913L589.589,431.673L589.209,431.414L588.843,431.137L588.491,430.843L588.153,430.532L587.831,430.205L587.524,429.863L587.235,429.507L586.963,429.137L586.709,428.754L586.475,428.36L586.259,427.954L586.064,427.539L585.888,427.115L585.733,426.682L585.6,426.243L585.488,425.798L585.397,425.348L585.328,424.894L585.282,424.437L585.257,423.979L585.255,423.52L585.274,423.061L585.316,422.604L585.38,422.149L585.466,421.698L585.574,421.252L585.703,420.811L585.853,420.377L586.024,419.951L586.215,419.534L586.426,419.126L586.657,418.729L586.906,418.344L587.174,417.971L587.46,417.611L587.763,417.266L588.081,416.936L588.416,416.622L588.765,416.324L589.129,416.043L589.505,415.78L589.894,415.536L590.294,415.311L590.704,415.105L591.124,414.92L591.553,414.754L591.989,414.61L592.431,414.487L592.879,414.386L593.331,414.306L593.786,414.249L594.244,414.213L594.703,414.199L594.761,414.199L594.773,414.199L594.785,414.199L594.802,414.198L594.822,414.197L594.841,414.196L594.866,414.195L594.892,414.193L594.921,414.191L594.937,414.19L595.024,414.181L595.104,414.173L595.193,414.162L595.291,414.15L595.397,414.135L595.512,414.118L595.634,414.099L595.767,414.077L595.9,414.055L596.218,413.999L596.923,413.872L597.131,413.835L597.345,413.798L597.573,413.76L597.812,413.722L598.064,413.685L598.334,413.648L598.621,413.612L598.927,413.579L599.23,413.552L599.429,413.538L599.608,413.526L599.793,413.517L599.991,413.51L600.192,413.505L600.363,413.504L602.611,413.504L602.663,413.502L602.902,413.497L603.127,413.493L603.339,413.492L603.539,413.491L603.735,413.492L604.044,413.496ZM629.867,426.69L629.868,426.689L629.872,426.686L629.867,426.69ZM636.077,423.911L636.08,423.91L636.083,423.906L636.077,423.911ZM644.388,420.267L644.389,420.266L644.391,420.264L644.388,420.267ZM611.62,414.029L611.546,414.101L611.621,414.028L611.62,414.029ZM623.405,409.748L623.284,409.862L623.371,409.781L623.46,409.704L623.405,409.748ZM628.915,409.24L628.91,409.247L628.918,409.236L628.915,409.24ZM626.934,408.246L626.849,408.324L626.941,408.24L626.934,408.246ZM642.264,388.864L642.261,389.018L642.277,388.675L642.264,388.864Z" style="fill:rgb(187,67,255);"/>
        <path d="M653.547,380.734L654.011,380.768L654.474,380.826L654.933,380.905L655.388,381.007L655.837,381.132L656.279,381.278L656.714,381.446L657.14,381.635L657.556,381.844L657.962,382.074L658.355,382.323L658.737,382.591L659.104,382.878L659.457,383.182L659.794,383.504L660.116,383.841L660.42,384.194L660.707,384.561L660.976,384.942L661.225,385.336L661.455,385.741L661.665,386.157L661.854,386.583L662.022,387.018L662.168,387.46L662.292,387.909L662.395,388.364L662.475,388.823L662.532,389.285L662.567,389.75L662.578,390.216L662.579,390.328L662.576,390.609L662.568,390.926L662.554,391.24L662.535,391.549L662.512,391.854L662.484,392.156L662.453,392.453L662.417,392.746L662.378,393.037L662.335,393.325L662.289,393.609L662.239,393.891L662.187,394.17L662.131,394.445L662.073,394.718L662.012,394.99L661.948,395.259L661.881,395.525L661.812,395.789L661.741,396.051L661.667,396.311L661.591,396.57L661.512,396.826L661.432,397.079L661.349,397.331L661.264,397.582L661.177,397.831L661.088,398.079L660.997,398.323L660.904,398.567L660.809,398.81L660.712,399.05L660.613,399.289L660.511,399.527L660.408,399.763L660.303,399.997L660.196,400.23L660.087,400.463L659.976,400.693L659.863,400.922L659.747,401.15L659.63,401.377L659.51,401.602L659.388,401.827L659.263,402.05L659.137,402.272L659.007,402.493L658.874,402.715L658.739,402.934L658.601,403.153L658.459,403.372L658.315,403.588L658.299,403.723L658.269,403.945L658.235,404.177L658.193,404.422L658.145,404.681L658.089,404.949L658.023,405.234L657.946,405.533L657.858,405.842L657.757,406.165L657.64,406.503L657.508,406.851L657.359,407.208L657.191,407.575L657.001,407.953L656.789,408.337L656.556,408.723L656.328,409.069L656.159,409.307L656.015,409.503L655.866,409.695L655.711,409.886L655.55,410.076L655.379,410.268L655.208,410.452L655.098,410.566L655.038,410.627L655.038,410.627L655.032,410.634L655.021,410.646L655.007,410.664L654.988,410.686L654.966,410.714L654.94,410.749L654.91,410.788L654.878,410.831L654.842,410.881L654.803,410.937L654.762,410.996L654.717,411.062L654.67,411.133L654.62,411.209L654.568,411.29L654.514,411.375L654.457,411.466L654.399,411.56L654.343,411.652L654.208,411.876L654.071,412.107L653.926,412.355L653.774,412.619L653.612,412.899L653.442,413.195L653.263,413.504L653.074,413.828L652.874,414.165L652.67,414.505L652.555,414.694L652.441,414.877L652.325,415.063L652.206,415.251L652.081,415.445L651.953,415.641L651.821,415.838L651.685,416.039L651.546,416.241L651.401,416.447L651.25,416.656L651.094,416.868L650.933,417.081L650.767,417.296L650.595,417.513L650.416,417.732L650.231,417.954L650.038,418.177L649.839,418.401L649.633,418.625L649.417,418.852L649.197,419.076L648.991,419.278L648.787,419.473L648.583,419.661L648.382,419.841L648.181,420.015L647.981,420.183L647.785,420.343L647.592,420.497L647.401,420.646L647.214,420.788L647.029,420.925L646.849,421.056L646.672,421.181L646.498,421.302L646.329,421.418L646.164,421.529L646.003,421.635L645.838,421.743L645.552,421.925L645.273,422.1L645.011,422.261L644.561,422.536L644.362,422.657L644.189,422.763L644.037,422.858L643.895,422.948L643.849,422.978L643.799,423.011L643.772,423.029L643.622,423.226L643.467,423.421L643.308,423.612L643.148,423.796L642.994,423.966L642.833,424.137L642.673,424.3L642.52,424.45L642.363,424.599L642.179,424.767L641.906,425.004L641.608,425.246L641.32,425.466L641.038,425.67L640.764,425.857L640.499,426.029L640.243,426.187L639.995,426.333L639.756,426.468L639.524,426.594L639.297,426.711L639.08,426.82L638.873,426.92L638.669,427.015L638.473,427.104L638.285,427.186L638.101,427.265L637.924,427.339L637.753,427.409L637.576,427.479L637.282,427.593L636.993,427.702L636.725,427.801L636.277,427.964L636.083,428.034L636.015,428.059L635.689,428.283L635.286,428.534L634.89,428.756L634.511,428.948L634.142,429.118L633.786,429.265L633.455,429.388L633.136,429.496L632.833,429.588L632.548,429.667L632.277,429.734L632.023,429.79L631.787,429.837L631.57,429.876L631.324,429.916L631.186,429.935L631.075,429.982L630.763,430.102L630.471,430.206L630.188,430.297L629.918,430.378L629.665,430.446L629.428,430.506L629.205,430.557L628.995,430.601L628.799,430.639L628.69,430.658L628.486,430.753L628.037,430.934L627.655,431.07L627.311,431.178L627.002,431.265L626.731,431.334L626.484,431.391L626.257,431.438L626.05,431.477L625.86,431.51L625.659,431.543L625.368,431.585L625.082,431.62L624.826,431.648L624.593,431.671L624.381,431.69L624.184,431.707L624.072,431.716L623.529,431.875L623.022,431.994L622.558,432.078L622.142,432.135L621.757,432.173L621.407,432.194L621.096,432.204L620.98,432.204L620.847,432.24L620.642,432.293L620.444,432.341L620.258,432.383L620.081,432.422L619.912,432.457L619.737,432.491L619.462,432.542L619.195,432.588L618.951,432.628L618.885,432.638L618.721,432.716L618.143,432.948L617.617,433.121L617.022,433.284L616.264,433.432L615.529,433.514L615.035,433.536L615.028,433.538L614.73,433.617L614.421,433.696L614.101,433.773L613.784,433.846L613.598,433.886L613.424,433.923L613.246,433.96L613.066,433.995L612.881,434.03L612.693,434.065L612.501,434.098L612.304,434.13L612.103,434.161L611.898,434.191L611.687,434.219L611.471,434.246L611.25,434.27L611.021,434.293L610.785,434.314L610.542,434.331L610.291,434.346L610.029,434.357L609.755,434.363L609.471,434.365L609.175,434.36L608.861,434.349L608.529,434.329L608.177,434.298L607.803,434.254L607.448,434.201L607.386,434.19L607.288,434.212L607.057,434.262L606.823,434.311L606.586,434.359L606.345,434.405L606.101,434.45L605.853,434.493L605.599,434.534L605.34,434.574L605.079,434.611L604.811,434.646L604.537,434.678L604.257,434.708L603.969,434.734L603.674,434.756L603.37,434.774L603.056,434.788L602.728,434.796L602.415,434.797L602.216,434.794L602.036,434.79L601.852,434.783L601.667,434.774L601.474,434.761L601.273,434.746L601.073,434.728L600.861,434.705L600.642,434.678L600.422,434.647L600.193,434.61L599.954,434.567L599.706,434.518L599.451,434.461L599.189,434.397L598.913,434.322L598.629,434.238L598.336,434.142L598.184,434.088L598.076,434.1L597.848,434.124L597.617,434.147L597.382,434.168L597.143,434.187L596.899,434.204L596.654,434.219L596.404,434.232L596.149,434.242L595.894,434.249L595.634,434.254L595.425,434.255L594.959,434.246L594.494,434.215L594.031,434.161L593.571,434.084L593.115,433.984L592.665,433.862L592.222,433.719L591.785,433.553L591.358,433.367L590.94,433.16L590.533,432.932L590.138,432.685L589.755,432.419L589.386,432.134L589.031,431.832L588.691,431.512L588.368,431.177L588.061,430.825L587.772,430.46L587.501,430.08L587.25,429.687L587.017,429.283L586.805,428.868L586.614,428.443L586.443,428.009L586.294,427.567L586.167,427.118L586.063,426.664L585.98,426.205L585.92,425.742L585.883,425.278L585.869,424.812L585.878,424.345L585.909,423.88L585.964,423.417L586.041,422.957L586.14,422.502L586.262,422.052L586.405,421.608L586.571,421.172L586.757,420.744L586.964,420.327L587.192,419.92L587.439,419.524L587.705,419.141L587.99,418.772L588.292,418.417L588.612,418.078L588.947,417.754L589.299,417.448L589.665,417.158L590.044,416.888L590.437,416.636L590.841,416.404L591.256,416.192L591.681,416L592.115,415.83L592.557,415.681L593.006,415.554L593.46,415.449L593.919,415.366L594.382,415.307L594.846,415.27L595.312,415.255L595.408,415.255L595.451,415.254L595.5,415.253L595.548,415.251L595.6,415.248L595.658,415.245L595.716,415.24L595.779,415.235L595.845,415.23L595.914,415.223L595.987,415.215L596.062,415.206L596.14,415.197L596.223,415.186L596.308,415.174L596.394,415.162L596.485,415.148L596.58,415.133L596.677,415.118L596.766,415.103L596.987,415.064L597.206,415.024L597.438,414.98L597.68,414.932L597.935,414.881L598.201,414.826L598.767,414.71L599.068,414.648L599.381,414.586L599.461,414.57L599.666,414.49L600.074,414.351L600.446,414.24L600.795,414.149L601.116,414.077L601.41,414.02L601.69,413.974L601.953,413.937L602.189,413.909L602.46,413.883L602.838,413.857L603.218,413.844L603.561,413.843L603.876,413.849L604.173,413.863L604.451,413.881L604.711,413.904L604.963,413.93L605.205,413.96L605.447,413.994L605.685,414.032L605.925,414.075L606.182,414.126L606.467,414.189L606.796,414.272L607.139,414.371L607.214,414.356L607.512,414.305L607.789,414.265L608.059,414.234L608.306,414.211L608.543,414.194L608.77,414.182L609.026,414.174L609.382,414.172L609.75,414.181L610.084,414.2L610.391,414.224L610.677,414.254L610.939,414.286L611.185,414.321L611.413,414.358L611.626,414.395L611.824,414.433L612.008,414.47L612.203,414.513L612.355,414.548L612.508,414.521L612.997,414.47L613.196,414.412L613.414,414.352L613.621,414.299L613.818,414.251L614.006,414.208L614.183,414.17L614.351,414.135L614.526,414.101L614.801,414.05L615.067,414.004L615.309,413.965L615.379,413.954L615.916,413.72L616.505,413.509L617.05,413.349L617.557,413.23L618.021,413.146L618.437,413.088L618.815,413.052L619.172,413.029L619.49,413.02L619.829,413.02L620.234,413.035L620.327,413.019L620.524,412.987L620.812,412.946L621.099,412.91L621.36,412.881L621.553,412.861L621.559,412.859L621.888,412.725L622.195,412.611L622.488,412.512L622.768,412.425L623.03,412.351L623.279,412.286L623.511,412.231L623.727,412.184L623.931,412.143L624.149,412.103L624.241,412.088L624.597,411.934L624.937,411.802L625.26,411.688L625.568,411.59L625.859,411.506L626.136,411.435L626.397,411.374L626.638,411.324L626.865,411.281L627.055,411.249L627.245,411.153L627.461,411.048L627.663,410.954L627.86,410.865L628.05,410.782L628.23,410.705L628.403,410.633L628.57,410.565L628.745,410.496L629.032,410.385L629.311,410.28L629.567,410.186L629.796,410.103L629.806,410.1L629.893,410.005L630.099,409.788L630.305,409.58L630.512,409.378L630.717,409.184L630.921,408.998L631.123,408.819L631.323,408.647L631.521,408.482L631.715,408.324L631.909,408.171L632.098,408.026L632.283,407.886L632.468,407.751L632.645,407.624L632.82,407.501L632.991,407.382L633.157,407.27L633.32,407.162L633.478,407.058L633.641,406.952L633.92,406.775L634.192,406.606L634.445,406.45L634.674,406.311L635.082,406.062L635.247,405.96L635.395,405.868L635.533,405.78L635.578,405.75L635.628,405.717L635.672,405.688L635.711,405.661L635.744,405.638L635.772,405.618L635.787,405.607L635.807,405.581L635.833,405.549L635.861,405.511L635.892,405.469L635.926,405.422L635.964,405.368L636.006,405.307L636.05,405.242L636.097,405.172L636.145,405.098L636.196,405.019L636.25,404.934L636.307,404.843L636.365,404.749L636.421,404.658L636.555,404.434L636.691,404.204L636.836,403.956L636.989,403.691L637.151,403.411L637.321,403.116L637.501,402.806L637.69,402.481L637.89,402.143L638.095,401.803L638.21,401.614L638.324,401.43L638.441,401.243L638.561,401.053L638.686,400.86L638.813,400.665L638.945,400.467L638.998,400.389L638.856,399.984L638.723,399.538L638.612,399.085L638.523,398.627L638.458,398.165L638.414,397.701L638.394,397.235L638.397,396.769L638.422,396.303L638.47,395.839L638.541,395.379L638.635,394.922L638.75,394.47L638.888,394.025L639.048,393.586L639.228,393.157L639.43,392.736L639.652,392.326L639.894,391.928L640.155,391.541L640.435,391.168L640.485,391.105L640.51,391.072L640.548,391.022L640.6,390.953L640.759,390.738L640.955,390.477L641.088,390.301L641.232,390.116L641.395,389.911L641.576,389.691L641.777,389.455L641.98,389.225L642.117,389.075L642.242,388.942L642.37,388.809L642.603,388.573L643.065,388.142L643.399,387.88L643.669,387.675L643.947,387.48L643.992,387.451L644.137,387.014L644.305,386.579L644.494,386.153L644.704,385.737L644.934,385.332L645.184,384.938L645.452,384.557L645.739,384.19L646.044,383.838L646.366,383.5L646.703,383.179L647.056,382.875L647.424,382.589L647.805,382.321L648.199,382.071L648.605,381.842L649.021,381.633L649.447,381.444L649.882,381.276L650.324,381.13L650.774,381.006L651.228,380.904L651.688,380.825L652.15,380.768L652.615,380.734L653.081,380.723L653.547,380.734ZM617.944,432.49L617.946,432.489L617.953,432.485L617.944,432.49ZM618.472,432.207L618.541,432.171L618.765,432.028L618.472,432.207ZM614.818,431.029L614.863,430.992L615.018,430.847L614.818,431.029ZM627.085,430.104L627.202,430.017L627.294,429.938L627.085,430.104ZM625.356,429.965L625.435,429.905L625.542,429.807L625.356,429.965ZM627.626,429.65L627.343,429.897L627.619,429.66L627.714,429.57L627.626,429.65ZM632.352,427.766L632.367,427.748L632.479,427.597L632.352,427.766ZM602.387,416.651L602.374,416.663L602.434,416.613L602.387,416.651ZM617.448,415.97L617.416,416.014L617.519,415.888L617.448,415.97ZM615.15,415.314L614.975,415.473L615.247,415.24L615.15,415.314ZM621.37,414.023L621.24,414.151L621.376,414.017L621.37,414.023ZM624.231,413.188L624.211,413.207L624.233,413.186L624.231,413.188ZM645.706,385.015L645.666,385.064L645.741,384.977L645.706,385.015Z" style="fill:rgb(187,67,255);"/>
        <path d="M631.194,340.939L631.502,340.943L631.807,340.95L632.112,340.959L632.416,340.972L632.719,340.988L633.022,341.007L633.323,341.029L633.625,341.055L633.926,341.084L634.226,341.117L634.527,341.154L634.828,341.195L635.129,341.24L635.43,341.289L635.731,341.343L636.031,341.401L636.331,341.465L636.632,341.533L636.932,341.606L637.231,341.684L637.53,341.767L637.829,341.856L638.125,341.949L638.42,342.048L638.714,342.153L639.006,342.263L639.295,342.377L639.581,342.496L639.864,342.621L640.144,342.75L640.419,342.883L640.691,343.02L640.958,343.162L641.22,343.306L641.476,343.453L641.729,343.604L641.975,343.757L642.214,343.912L642.45,344.069L642.679,344.227L642.9,344.385L643.116,344.544L643.325,344.702L643.529,344.861L643.727,345.02L643.92,345.178L644.104,345.334L644.284,345.489L644.459,345.642L644.628,345.794L644.792,345.944L644.95,346.091L645.104,346.237L645.255,346.382L645.399,346.522L645.54,346.66L645.685,346.805L645.94,347.063L646.191,347.32L646.289,347.421L646.307,347.434L646.343,347.458L646.385,347.487L646.436,347.521L646.493,347.558L646.554,347.597L646.621,347.64L646.687,347.681L646.864,347.791L647.052,347.905L647.263,348.031L647.745,348.32L648.016,348.483L648.305,348.659L648.602,348.842L648.771,348.948L648.936,349.053L649.103,349.161L649.277,349.275L649.454,349.392L649.634,349.514L649.82,349.642L650.007,349.774L650.199,349.911L650.395,350.055L650.593,350.204L650.797,350.361L651.001,350.523L651.209,350.691L651.42,350.869L651.633,351.052L651.848,351.244L652.065,351.444L652.283,351.651L652.502,351.869L652.723,352.095L652.944,352.331L653.164,352.576L653.383,352.83L653.585,353.075L653.711,353.233L653.818,353.371L653.924,353.51L654.033,353.657L654.138,353.802L654.233,353.937L654.395,354.172L654.545,354.392L654.694,354.613L654.842,354.836L654.988,355.058L655.134,355.283L655.277,355.507L655.419,355.732L655.561,355.959L655.7,356.186L655.838,356.413L655.975,356.642L656.111,356.871L656.245,357.101L656.378,357.331L656.509,357.563L656.639,357.796L656.768,358.029L656.895,358.262L657.021,358.496L657.146,358.731L657.269,358.967L657.391,359.203L657.512,359.44L657.631,359.678L657.749,359.916L657.866,360.156L657.981,360.395L658.095,360.635L658.208,360.877L658.319,361.118L658.429,361.361L658.537,361.603L658.644,361.846L658.75,362.091L658.855,362.335L658.959,362.581L659.061,362.828L659.161,363.074L659.26,363.321L659.359,363.569L659.455,363.817L659.551,364.066L659.645,364.315L659.738,364.565L659.829,364.815L659.919,365.066L660.009,365.318L660.096,365.571L660.183,365.824L660.268,366.076L660.352,366.33L660.435,366.585L660.516,366.839L660.596,367.094L660.675,367.35L660.753,367.607L660.829,367.864L660.904,368.121L660.978,368.378L661.051,368.636L661.122,368.895L661.193,369.155L661.262,369.415L661.329,369.675L661.396,369.935L661.462,370.198L661.526,370.459L661.589,370.72L661.651,370.983L661.711,371.246L661.771,371.51L661.829,371.774L661.886,372.038L661.942,372.302L661.997,372.568L662.051,372.835L662.103,373.1L662.154,373.366L662.205,373.634L662.254,373.9L662.302,374.168L662.349,374.438L662.394,374.706L662.439,374.975L662.482,375.245L662.524,375.514L662.566,375.785L662.606,376.057L662.645,376.327L662.683,376.599L662.72,376.872L662.756,377.145L662.79,377.417L662.824,377.691L662.856,377.964L662.888,378.238L662.918,378.513L662.947,378.788L662.976,379.063L663.003,379.338L663.029,379.616L663.054,379.892L663.078,380.169L663.102,380.446L663.124,380.724L663.145,381.002L663.165,381.28L663.184,381.559L663.202,381.84L663.219,382.12L663.235,382.398L663.25,382.68L663.264,382.961L663.277,383.242L663.289,383.525L663.3,383.806L663.31,384.089L663.319,384.372L663.327,384.654L663.334,384.94L663.34,385.223L663.345,385.507L663.35,385.793L663.353,386.078L663.355,386.363L663.357,386.65L663.357,386.921L663.351,387.29L663.33,387.658L663.295,388.024L663.245,388.389L663.182,388.752L663.104,389.113L663.013,389.47L662.908,389.823L662.789,390.171L662.657,390.515L662.512,390.854L662.353,391.186L662.182,391.513L661.998,391.832L661.802,392.144L661.594,392.448L661.375,392.744L661.144,393.031L660.902,393.309L660.65,393.578L660.387,393.836L660.115,394.084L659.833,394.321L659.542,394.547L659.243,394.762L658.935,394.965L658.62,395.156L658.298,395.334L657.969,395.5L657.634,395.653L657.293,395.793L656.947,395.92L656.596,396.033L656.241,396.132L655.883,396.218L655.521,396.289L655.157,396.347L654.792,396.39L654.424,396.419L654.056,396.434L653.688,396.435L653.32,396.421L652.952,396.393L652.586,396.351L652.222,396.294L651.86,396.224L651.502,396.14L651.147,396.041L650.796,395.929L650.449,395.804L650.108,395.665L649.772,395.513L649.443,395.348L649.12,395.171L648.804,394.981L648.496,394.779L648.196,394.565L647.904,394.34L647.622,394.104L647.349,393.856L647.085,393.599L646.832,393.331L646.589,393.054L646.357,392.768L646.137,392.472L645.928,392.169L645.731,391.858L645.547,391.539L645.374,391.213L645.215,390.881L645.068,390.543L644.935,390.199L644.815,389.851L644.709,389.498L644.617,389.141L644.538,388.782L644.474,388.419L644.423,388.054L644.387,387.687L644.365,387.319L644.357,386.951L644.357,386.712L644.356,386.489L644.354,386.266L644.351,386.044L644.348,385.824L644.344,385.603L644.339,385.383L644.334,385.166L644.327,384.948L644.321,384.731L644.313,384.515L644.304,384.299L644.295,384.085L644.285,383.872L644.275,383.659L644.264,383.448L644.251,383.235L644.239,383.024L644.225,382.817L644.211,382.608L644.196,382.399L644.18,382.193L644.164,381.986L644.147,381.781L644.129,381.576L644.111,381.372L644.091,381.171L644.071,380.968L644.051,380.767L644.029,380.566L644.007,380.367L643.984,380.168L643.961,379.97L643.937,379.773L643.912,379.576L643.886,379.382L643.86,379.188L643.833,378.994L643.805,378.8L643.777,378.609L643.748,378.418L643.718,378.227L643.687,378.038L643.656,377.85L643.624,377.661L643.592,377.475L643.558,377.289L643.524,377.103L643.49,376.919L643.454,376.736L643.418,376.551L643.381,376.37L643.344,376.19L643.306,376.009L643.267,375.829L643.227,375.65L643.187,375.473L643.147,375.296L643.105,375.121L643.063,374.945L643.02,374.769L642.977,374.597L642.932,374.424L642.887,374.251L642.842,374.08L642.796,373.91L642.749,373.741L642.702,373.572L642.653,373.403L642.604,373.236L642.555,373.069L642.505,372.904L642.454,372.74L642.403,372.576L642.35,372.412L642.297,372.25L642.244,372.088L642.19,371.927L642.135,371.767L642.08,371.608L642.024,371.45L641.967,371.292L641.91,371.135L641.852,370.979L641.793,370.823L641.733,370.668L641.673,370.514L641.613,370.361L641.552,370.209L641.489,370.056L641.427,369.906L641.364,369.756L641.3,369.606L641.236,369.458L641.17,369.31L641.104,369.162L641.038,369.016L640.97,368.869L640.903,368.725L640.834,368.58L640.765,368.435L640.695,368.293L640.625,368.151L640.554,368.009L640.482,367.868L640.41,367.728L640.336,367.587L640.263,367.449L640.188,367.31L640.113,367.172L640.037,367.035L639.961,366.899L639.884,366.763L639.806,366.628L639.727,366.493L639.648,366.359L639.568,366.226L639.488,366.093L639.406,365.961L639.325,365.83L639.242,365.698L639.158,365.568L639.075,365.439L638.989,365.309L638.92,365.205L638.875,365.175L638.82,365.138L638.761,365.099L638.694,365.056L638.622,365.011L638.554,364.968L638.374,364.856L638.183,364.741L637.973,364.614L637.743,364.477L637.494,364.328L637.228,364.168L636.942,363.994L636.65,363.814L636.484,363.71L636.32,363.606L636.152,363.498L635.982,363.387L635.808,363.271L635.628,363.149L635.444,363.022L635.257,362.891L635.065,362.753L634.87,362.609L634.671,362.458L634.469,362.301L634.264,362.137L634.054,361.965L633.84,361.783L633.625,361.595L633.409,361.398L633.19,361.192L632.966,360.974L632.785,360.788L632.561,360.557L632.391,360.383L632.232,360.223L632.173,360.163L632.109,360.101L632.05,360.043L631.998,359.994L631.99,359.985L631.969,359.983L631.897,359.976L631.817,359.969L631.729,359.963L631.632,359.957L631.528,359.951L631.416,359.947L631.295,359.943L631.166,359.94L631.029,359.938L630.844,359.937L630.476,359.929L630.108,359.906L629.741,359.868L629.377,359.817L629.014,359.752L628.654,359.672L628.298,359.579L627.945,359.471L627.597,359.351L627.254,359.216L626.916,359.069L626.585,358.909L626.259,358.736L625.941,358.55L625.63,358.352L625.327,358.143L625.033,357.921L624.747,357.689L624.47,357.445L624.204,357.191L623.947,356.927L623.7,356.653L623.465,356.37L623.24,356.078L623.027,355.777L622.826,355.469L622.637,355.152L622.46,354.829L622.296,354.499L622.145,354.163L622.008,353.821L621.883,353.475L621.772,353.123L621.675,352.768L621.591,352.409L621.522,352.047L621.466,351.683L621.425,351.317L621.398,350.949L621.386,350.581L621.387,350.213L621.403,349.845L621.433,349.477L621.477,349.112L621.536,348.748L621.608,348.387L621.695,348.029L621.795,347.674L621.909,347.324L622.037,346.978L622.178,346.638L622.331,346.303L622.498,345.974L622.678,345.652L622.869,345.338L623.073,345.031L623.289,344.732L623.516,344.442L623.754,344.161L624.002,343.889L624.261,343.627L624.531,343.375L624.809,343.134L625.097,342.904L625.393,342.685L625.698,342.478L626.011,342.283L626.33,342.1L626.657,341.93L626.99,341.772L627.329,341.628L627.673,341.497L628.023,341.379L628.376,341.275L628.733,341.184L629.094,341.108L629.457,341.045L629.822,340.997L630.189,340.963L630.557,340.943L630.925,340.938L631.194,340.939Z" style="fill:rgb(187,67,255);"/>
    </g>
</svg>
