<?xml version="1.0" encoding="UTF-8" standalone="no"?>
<!DOCTYPE svg PUBLIC "-//W3C//DTD SVG 1.1//EN" "http://www.w3.org/Graphics/SVG/1.1/DTD/svg11.dtd">
<svg width="100%" height="100%" viewBox="0 0 658 204" version="1.1" xmlns="http://www.w3.org/2000/svg" xmlns:xlink="http://www.w3.org/1999/xlink" xml:space="preserve" style="fill-rule:evenodd;clip-rule:evenodd;stroke-linecap:round;stroke-linejoin:round;stroke-miterlimit:1.41421;">
    <g transform="matrix(1,0,0,1,-478.334,-343.066)">
        <g transform="matrix(1,0,0,1,175,13.2522)">
            <text x="296px" y="411.509px" style="font-family:'AquaGrotesque', 'Aqua Grotesque';font-size:92.835px;fill:rgb(171,105,222);">Today</text>
            <text x="610.897px" y="411.509px" style="font-family:'LucidaGrande', 'Lucida Grande', sans-serif;font-weight:500;font-size:92.835px;fill:rgb(171,105,222);">&apos;</text>
            <text x="632.157px" y="411.509px" style="font-family:'AquaGrotesque', 'Aqua Grotesque';font-size:92.835px;fill:rgb(171,105,222);">s</text>
        </g>
        <g transform="matrix(2.82664,0,0,2.10575,-942.524,-285.28)">
            <text x="610px" y="368.097px" style="font-family:'AquaGrotesque', 'Aqua Grotesque';font-size:26.307px;fill:rgb(255,152,54);">Question</text>
        </g>
        <path d="M707.136,456.325L753,500.163L707.136,544L661.271,500.163L707.136,456.325Z" style="fill:rgb(255,152,54);stroke-width:3px;stroke:rgb(177,86,255);"/>
        <g transform="matrix(1.23877,-0.0185907,-0.00483695,-0.322448,12.8716,638.683)">
            <path d="M622.226,344.597C718.602,344.597 809.733,340.597 905.554,340.597" style="fill:none;stroke-width:3.31px;stroke:rgb(177,86,255);"/>
        </g>
        <g transform="matrix(1.23883,-0.018896,-0.00597079,-0.391449,7.32735,583.438)">
            <path d="M622.226,344.597C718.602,344.597 809.733,340.597 905.554,340.597" style="fill:none;stroke-width:3.27px;stroke:rgb(177,86,255);"/>
        </g>
        <g transform="matrix(1,0,0,1,0,24)">
            <path d="M673.568,456.325L707.136,488.163L673.568,520L640,488.163L673.568,456.325Z" style="fill:rgb(192,91,255);stroke-width:3px;stroke:rgb(255,152,54);"/>
        </g>
    </g>
</svg>
